<mxfile host="app.diagrams.net" modified="2023-08-14T19:28:40.988Z" agent="Mozilla/5.0 (Macintosh; Intel Mac OS X 10.15; rv:109.0) Gecko/20100101 Firefox/115.0" etag="9Tj3bRTK2QQnOyopa9US" version="21.6.8" type="github">
  <diagram name="Page-1" id="FTfFYvCQFaZ8rZCarjS2">
    <mxGraphModel dx="2447" dy="936" grid="1" gridSize="10" guides="1" tooltips="1" connect="1" arrows="1" fold="1" page="0" pageScale="1" pageWidth="827" pageHeight="1169" math="0" shadow="0">
      <root>
        <mxCell id="0" />
        <mxCell id="1" parent="0" />
        <mxCell id="ogEo_6NqqmNYCkTCZS1q-7" value="" style="shape=image;verticalLabelPosition=bottom;verticalAlign=top;imageAspect=0;aspect=fixed;image=data:image/webp,UklGRsxMAABXRUJQVlA4WAoAAAAQAAAACwEApgEAQUxQSGQPAAAB8If/n2Kn/f89cadtcElwd3eoI69idffi9Rb3hldeuCa4FXfiAq/gCe4eHAJxOfHk5Dz/OLuzuzOzz8nrrRExAfD//v8/VfdZNN/44ibq1aHnG7cL8rPR3Jx859HuPfuUVqO6e8OOIY8JIRvKK47XmD8LkevAEWVUpVjdDShgxs2BKtLZ9xmKeml5fbV45S8Xir21mTq8fywLxd9TRw0+vIuS9FaAIQ9RnjGdiPfZDZRqzjzK1XmG0j1MtlJLM1DCoZVJVs4HZT2aXjXmOlHeI6jVAeU+glS9IlH2I+nkGYU2OJJKP8WhLY4gUcPNaJcjCdQfbXQUdYpfR1sdRZtZqWizIykzG+13FF1mox3/QpXZaMvpRPkLbfowSXzQto+VpEc9tPFR5Kh81c6yelHjZ7T1CGIMQZtfSIsTducoT4nOaPv3yxDiJ/vDL+hQIpkAZ+gwCwmYWJsMoymA/6LCH7dI4HqJBJ2cSMS1FPBHMvoT4CwSsrPt9URKfmd3fVykiLU7B5LS0cLefkZiettamQfUmGBr3yE5a9nZbXpUsrFGqfT4zsZGIz3P2leJaIKE2ldFJOjdirbl6SIIfmFb4UjRd2wrgCQTbGs3SbCkTZW/TpJMsOnBWJTwJk3SixRym9pUT5rgNpuaRZQ19vQXFiHMwSIEbyTrSvvpEo103WA7rZG0E2ymo5M2OMFW2riQuhNtpBsSeLJ9hFIIp9jFHKRxI3vwQSJH2YIPkvlSCfnNRUJfKia7P5DUl8vLrVQMrXCB1ErcRWLnvyqzJ0jvt+T1D6S4tD5Akq+SVSHNsLecdiPRH3rIqBOSPbmMfLzS6YbfymcBUr6fbH5E0ofL5jbtcIVcopH42TVk0gHJ7y2Rl1EBv5HHfBW4JY3KDhXAf8hiCqphRzl8hIq4Uw5XVAEbyKA/KuMuGcSqAzYS71NUyEDxbqoEthTtHVTKraJdUwv0FOvlF4oRJNZ0VM0eQqFyDhZplXo8E+mgeuBocVqjgvqJc0FFXB7CJKoI+oryGyrpPVEWqAkOEqMiKupoMQ6qSlZpIU6pClYUodITZdknwhBU1mMi7FUXHCAAKmxn/kaqTBh/W1Umm7+DKoM/89YOlXYhb7XVJoC3fWqDTThLUZwanN1XnL58dXcpzgO+pqDiXuHrN9W5wdcY1cFRPJUtVJ5veSqPyvsRT6A+a3nyVR8sxdFpBQKOj/yXhaMK9DpHoQr0b37qpCjQAX6GYVFC///3X9HGqeiigvO5iBnpRQUnEtZlOFD7dDCVhksLMSdlc4GWM59KcEFe2pti0P4Pc3RIdiQczNERBYIimqgihQ0KVIojUJ+twHEZ9fmIp4rq8y1PEKU8Y7gaoTq3gevfVOcKX1NV5zZfpRIVJ5IviFec6pyFKE5jzuqoTQRw3kpt5vHWUG0m8AYbVSYJuP9VZZA/KCBHfro8JgqA5Ly/JUwa/QT4mRBxsW6IMZuj4qVwCgQcTIgr57QQr1yWQoAIcIEO0vUQIkRZygpRSVWiQcjyWYrylhgwWU3ugaCD1GSdKHCRDgfOSMRLmHZ0kOmDCsI0VpERIO5K9cgHkekRe0y0CKGSyZF6S7ROQn1IDuHDQewHpDhbKF5jwd6jg/PvtONO4faB6A/IgA+iUPiCDsJ9S4fso5nCxYL4iWTAM9exYEuaUDMkMJQOhdsQ4wtF2gcyvEkGvBmJYreQwhd0wKB4oQJAjrF0eJgtVCdJfEoHsYNBlquVAKfKopIa4LkOcoBlaoDYXA5lLijCajlAV0XAKXKASYrwrKwcoEANcLQkGuSqQa4kYL8a4F+SgFNkcqZasl4W75EpdpMl6CkJ+JRKVofKAiLIczGchxhp1IqjTkEaQ8ZpYydzNPBLWUBJB21230LdFD9HlLGj2VoTpAEr7eCsdw5i9Jw8EfJcepiHVpaSBvjKJuuuCXEnXIixp1wicNtUHuAnmYQwE4TOZskxI9+pFSERWCgXSWac0HL4Mrj8UkzwP6t1pYREyhEk87SWfnIGWjxIItCTHszRVxDx8CWrussE+tjO/m3cxD1OTEYe70gFetrNJl/LnOvSNO6cQ3MdOg6dTLlAT5tZs8iCk/Fu6EBLs5ZpOZc6tfIbywX62EtinAXXUjXynrOcCGB4sNbNzDWSgW62wuPjA1q7E9Ggy6x/ygZ6CbHmubT0n+QbMb+ObKCnCDJOWmeA3/rSgR4kwAytqEececoHemRRQPdeksaj8Tonuiz5sV+Cgecr5Aaz+HPKSzd1PyJuSUb2R7u12KU0n7uHm6SnGes0kBuntSKJpTEF7DV3hVNLN68AGUNBtTALDZ4NZ/FWHMeyAo3A44gFRxxuli6mQYFLPoV/p7ixp016wHAlyJylNDhwTj6Y4DLGnpNqSipI2Y8/WW96aIHJhXIaYBc3r1pVgLxvlRM85++GU4g1i63iv6+kkrjLD84RYv1SycRUIIKoRyMkEwGkk263ooSjQIbzewnwBh0oeA2KEFJqyyuHEnEpKamHmrVuvsiiOA+Qty8Zdk96D/QXW5LkARJ/jQZ5/o2A/YgFx2qCzMvFkOA4GH3TZdbhLiD530lwxxDAy5s2rN/AdHnthrWlwAa9ThFgmAma1Rs30m0Gtll8gu2dL22WXdcOtLWtJYCa7YfE2dTV1xsCSb++LbOQDNOaAlmHPuLkTi5/rj+emNaWLgDvP+EiJIU/K9tTBuCzmxzIlTgAQ54VJQB8eddGWtAHwGNxjl0MpxDAK3/ZxEMaAUD7PU/lEX/StOtkAijWflNGlhzSrpl2nlCaE6Y8kICFGR2IBQCVK2iW+URCOIlejGe0cjMl8ifh9mldDJaIqwbd2uVoSLWgLN0qFgpz6IppOIZuFS4Lk5xpXiTd4AdhrAwkXNcs+ewhHByXD/Yi3HlRsjZlmzeEcF1FwQQ0fxDhmjpFsZJysFA+wyj3q3x6Ug4eyiYQKF/KIZuZpINfJJNVjnYDRAl6YlInIP4hQZ7lmJE6ozRQf6cgZu75oAzQv1aeeNmbt+/6EtTQ44V410Ahx2ntfyrOHZUYqpWM4r6opRBwRSNpZZYwOE8llmhg0BlxpqtEKy3dghi1K3+KzeHv1HC61AxWsOn7n2E5l2rRPKXo4DSF/YxFWQ2UAv62zOq1oJaDxVoFiln7mUgbQEEXBt4X42BDUNRefa/lZXKVmR/YFNT207k+c05Zt9THx2deb1Dk6h7uL717+wbzLZ/KHppVKsP/K/pfKxdUtqbUwjUd1OYXNHjQig9foPsvKhNnJNiCg6g7VmGSjfibVjIIGf+0s9DkeDPTlkujeptjT5gCTKuDrJft7Baau1ca7rt5qJrPcsbOYk0KkAo85yyvu4216hyTYSTfkZnUTi4jOKiNrJFg8+PTmWJKgnS7c1DyEMtlu4MWTFtBvq9xAIMZ0trbXi2mffYEI3SSmoPtexEASi7cvm3bjh+AgJ4UIOR/3RgaFhQUFBT2mgXFNboEB7kHNLGqmEXFLJgdEhQUFBQyw6RPQoOCgoLCurh5hxzuLan+45A1a2xfneHfr0PmegB9I5FxiCVfosH1/X5Yi8yX3Gr8+MNzZA0BgPEu1D9v7A9kTf/cDxEPSsnzEho+W0PjORpcVC0K2Y/WteBDI37RaDDa7R00uAPGpyFz0kSmipNS0cxSEpqSjLqhehhXxe2hkWeP0OhSC740sjHSyCm3t42s/xQNV2doWYjmgny2o24XgJq3dfBRNQDwOxZWwGSi6yPzoHTxTXpHvYtB08MRLmMwPZLNhca3MKShdvbWsgAwLVZaO1B3BwDA93r4zBPcO2UYKXAWsOAVCwDaafm3AO2a640B1PNn0czPZypoqjMedXeAZvF7kvoCdZNB844eHtaAMWxPxgFAGEtcMwtapbrtaQmM7RwmwOv5bPtbAvRiwbVaXVG/rBaUeyqlJi/0LmrdZzij9SvTw6rgHsOAv5jXJh0RcSqwnzYDHrJEe4H7ByxOrcYM63Wg9HUZ+aN+b604Bhxu7H410BzB8oNprXMQ8dxAMHjZlFiWHqBZ6jJDmtYqhoxGOtBXRucY+mvtYPE21hC063PQzoGIp0uB0UsWHQDddQzpWskMmPe+DlxExGJy+QAZO2lVZXGWM+Sl09K6tpmIeAuMW7VHb6uxCyyId497lXfrm5ebVVYuKSwbfp84ceLEP3xZUksYasDJAWidhe5bedtnQUs295sTG4Hg5sSzmCnMGs801HS1lEZ3Y4i4t758Yq3JLyPI4wTUTfOURekrZiDuqsLbp8Piwt99z4JZaG10cUGYJ8gCvjEHX1Tk6pdnqLnYvDlMY5q1MdoRNMXCr2QBY8zB+JoclUP9pcb2as1l6glmC3aylCxgtDkYyNEWBvzZULgWxEspcWQuA+6TBox9agp25qaFi2Waod46L1iC5bEF/FhyespgWETgBAAYttyM9twMQdZJAODFBLpZLJny8Ae4zYD4tgSmI2JXcB+wIdvIDG76G3qFqZzOlywplY3UritMAMDHTMES+A0Rj2kAVGx8OJYJhZgOALNZAkC3BwsuNvAXYoBA5c+zoK8csI+W+0KWedwMZMkGALjF0k0PIllwENNMRMS1PIwwCSpnsaRUMyNKAHyJAUIZ2nLzBstIAOjoYogExu5MOIhhBiJiShdDNcz4XK+rAZjKgg8q6FxmiBTBjyWAoSs3EKX3JQDATmRsygKnmHBKCY1Gfuj+AbiPZvlGpzHLJr2ZDPvc4BALfq4TxRBbXe8Bwxa9jQzxTLiR4aBeCPDbSivnbQCArcg4H9j/zYSOh48fP36Amv4l3Ip5s9zS6cVS2EeraTxDeEW33kz4lZfbOGT9q5jWbGTMH6QTwIA+L7HgKg+do3oNOYJQjdjxUGx1KDLOBaPHmJiDAKDWyuUOZI5aNQsab/TNZEE8urzs8PUHkf3vTf0ADjAhRvit3I7sib6Leq7xO4DsazZ3hZ9XhiL7ih/gZx3EZcXddqLuLuA6wA2xEFmfTgPjG/LNcLYCALiKxlPhbTR+YBcaHw8AD9nM/QVN/PJVNLH9twyahajtWAKcvx3vxpp7uwSY2SHNZWh2dXC/YEIa9Ddh904TJgDAWOt+NePzIaaMc0tn0Hb9URn4//IGS9YEML3MErYFJUDbY+58o4vGQ4Ol8436FB+0dL7RFT0AoMbi+dYumNVp0XzDvq0a+s03uvAz6I2I66DSwhMsO+aAoDWr6lYvC1Z6VKuqW60ykPPlarXBvWZV3drw//7/P6ECVlA4IEI9AABQ6wCdASoMAacBPlEkjkUjoiETuV4MOAUEsbd+Dtv65NyM/QLwB+gEi/ZVmPfx+3FAN7r/B/uH7cHI/eF8P8f+0zue7A+gD3pObv95/hP3h/vXzN/0vqX8wb9dfpy7lH7qfiB8DP2z/a73gv+f+2fvD/tf+q/7HuGfzr+zeuJ6qX9x/7/sG/yL/Af+713/2n+Gv+vf8n9rvaP/+usP+UP7F+NX61/sd+OvAf71/ff2U/unqb5KPS/7d+3/929x7+279XTf/P9Cv5J9rfzn9t/dT/A/Oz+f/3P+C/HH0t+Rf9z9yXyC/kf9C/xX9p/b//A/u77rf+L27dm/+P/iP26+AX3L+i/5f+9fuj/d/g5+Z/6Xon9mP917gH85/qn+k/vH7tf5H///Yv+4/YDzAvwv+n/bH4BP5x/av+N/f/yP+nP+w/63+d/1//m/0Huk/RP8l/1f8z/q//J/rv//+Bf8s/qH+x/u3+X/9f+a////3+8n2R/uf/5vdH/X//kfn/n3jVniRdcEJBkyBjXDocOhKL1KhJ4r6X6eAnFAItzYgrDgRKz3Bk8PfgHUtGSouSp+MpzOq15vC/7v21j+17Fx503/wA/sV297McpKxfoTt8ZOSA+ka3YUYIknOPSJaMlRerDUBT34vluhmuh4GB+lZ4M8V7vh0Y0gCNdDbR3k0GljIr9ibPeeuyuY+r3o+H+JIiabFEBXlP5Kf8VBv40r+EPDlWOqNxshGuY8N/x+Yng4nwaP+5ZotJs4gpBCJaMlO0tQM2lFw8GsD4durmKN261waeUclZ26lmvxaz7U/Hfl4IL9eITlNEELA592Qdh8A6CNhKBTI6y21MfaFA666n9mFmd6EuW3GaP5llqrvlfspRn2wgktQvsw+DlmXQEe9M4y88W1brhKmwYwd9lOnTjz/rD6ufsGIX5DOvCu5WzRGC8TIfmoacvvwvKjDAm474gtMci3JXISHo3ZXPxIizHA1SSXXHjrZCecVrPzYEnmlLh7KYvDVOOU8FZnw6NRoSaFnF1zIBnaUVZGOMLBxrumtCGoeCcY7dC0ZInqSt+ennuZzETQRPU5R4hrCuyQf6BXlA0CRPaH1Vl+iQ93bcl2tdt7PZ5yh/c5iLS9Xal8dFgbTAYqpSOdvoAhWTaB2EnY/FAswBL+H9Z+caMgzdonZejZgjAwH4ZVO0EWAGeaZvTvEt+NcNNyJyB7ni/0tCvOQFf/VaPRKDaPK7QOslHiFJHcal9hR4lkhMH5gjHI9mFNdhKwIfc/H8er/G16Ko89d9gXTW/HdqsBuQoTWpG3zvfwKVeEHpUUkL87A4OXmltn80ngDwEtc45vf7ZbXmyGaNJzhLvaOxWYJjlSqhxilXe0tlxofa8j8Ub5gIKEcT9v/rjClD6kcKfDBXHR/7xGwLLFVwinJi+WjMEHybkIZ5s5aBFgO6zamEhjvaT/JXU4+m/84NfVXKLJ/LOUqCQcgXT8k2YRQjv2gSndTONyCigIHb+eI5lHQ/3KfpA0G/tJ5ZWL5p/RIDqM1mIkl6wKJy3g9HpfdR/LyyultmCPFW+Z+52W5zub6uvfTn89cVSI99JOgiBJx4gm9mEmRL8NrE+s5opEpMEIY8oeQ/43FyczQXTNVb9O9J4Cn6N2acnhq3P/Oo9Kup74pHuLNtMAKGIAs8dXIkWbgH+Lt3ucKDZiqjBhW02uDCcx3/OfJcfVl2esSXCuWsdxdEXxZOofrJLGf2nP+vt1HHtYYIEsD0DJNKxwF789LcV268+05yKnehp8aaxWD0E7NtRc3OAiLFZhMIlyhBEpnhZBBgeL/A/z+QkERNZ1oBf5W+7t4AK4mlaN/RqZy9ZSSNv07b7re2GSWfiM7y0RY2XCzn3fR9WFE495H67S+HmoLFfYTvmhsMOxJY9pnTNi8QjGfpMX2zpyXXp6VlRWeEAruA6lV2b6F6YFlq+YjKIDPqPtFMXXSoVbd8keaqjy/eCCWyUQwraZ6CJD+0mFf+A0+M7+6b3gwPmVn5Xa8rrzAooDoxrT/m31Xvs51j/6j+xQn+jExRqHwDqWjJTxcwKeC49u5onOV8f2WQNb7GK/vAb2qDDtS5OrZ96F/D0907+C90fD/EeuYdJu53O4lWj/76rBn//R3PFyGeNLk1GSovUxyZSYfExLbejmDRz8AYrLDuS1wIKtGnOR22XvJZFDu/af4MUWKXOP8SRGgnapUjVOwAXFfozsX8aWvibYP3OLYNrl0/TOsCFaCEBOMmywLS5RMeny+l8LANHvynP9duQNs/b5birn3B5x6EIlllqT7pWJrY8irNFxts/8VcfK9+b0qXu7ks7h+CXmqfgH0oBj020vvOrVUFDzepz1X/+Hig9L6ihonZrWsDZURUclzq+O2j8iMVhCbrnws0mFP2ZHRb/Gl0blx1n9hCOM38YViT2seu/TtFxNzLGo2r4Oy40O5Iome0mPdC0GKU3vQ8enlpeoOz6TRyKFsxIrC+wBVcWKZGSovVidy42/AOpaMlNwAP75ePZwR6HhI/OYY0FhnsYIeXELsNY8nOCPQ8JH5zDBRGRTdMaSTiiT3q43KEYLkDcLqwXNKeu8APTUocFuAHTMjxV0pT+7G80xjQV8IlNcpOvUZpj5Wzv/FhnypSjZr3BcGQtx71Rp9F8RLGhRE2Rc2zkIAMKq9UcUANRKtQ+7bZefIANneXjIJitfs+JL9oWp7XS184Wg0a1MlhazkKvi4HNw2aCJt2RqMeNG3GWlrbytOw0uToOANv6cTCCYX+SNVjW3nEOlbnZiRvOh+YAUabd0y5UAayX7v1Hb5mUQs+j7r4ucF9L+8XOh11tO3bZTurV1pb+Yqzl+G4SPRsEmyElv62GbW+oGI8Fci2gPjWLEk3pSJTNUx+PoWSX7jCeRglJAb+WY+cnkIg/mplIfOPMD+JubOZRFe3BWO2nlyDw3uDUi+WIlZZpFYWzfLLBOET5JtZl6RDWseG9ftnLoiXWpxRvjmnDjLGdZfwBVMfmQnrAp4P+Qy4LtcWR3FP/qiRYpKyb9byRha3J8Tl7pB2yrzqaO2kuwvPSGZ9h+FFsXtgW9lNPuSTm4emfyo6eKEFgIQSCrNVJM6eV8LUeynsVawg0MbhHDDQbf6tCVf8pvblmcg9PuRDBZVsZ9KDaAjdEktZuZP9x3HVHXgfmsqVAHlbwZv6NYT4jneLKMWn5m7gwSLSDIuc6fUpQa64kz4nOBii2EFpR9NDZvc8GQv9rLeHYycu/G8WmlZyZfETEISpU3X9MOdr520WZsihPDhBF9SZ8npH8i5YVLZFIUHegbQN7hWxyr+PxfYOS1pnzHpdYgjRfHzDda+Smge6zMsGsuK4+dohJNqUIBTSS6S1Lkn09Dk4QetVwQxttpayfIMHcN7/byP/0scuZ4XbO6M2Q4JgKSi/X72QakwLkwSj5mkmPmAwnfzkRIlxjoSq3PXrEbbCwZeGkWJ/z7UXMm9D4gp8G6RZkyJS1bDPHqGHtc3vPdbLhQmjtZu3TrEBmRWv/E9twfGANs0Wtaccxbf+0zTKT4XELr37KfxJ21CA/JSC5ZKtsLEU8P8MvkZDcqfiywT8D9g5otFx+eX4L2NNw/1OnFzh9PPCOkQNGhrne8LYpou9f+JCOw4jmd2mlB6HaWPoDlVwVYQla5xZDwkEMRz9qAU+FMInDcphZUkgjqBbqz37cciLZJSfWcPowqN2eoWB+xzlufgs7Kh9jATzWKB+U1ivTsnp1NgFUZPuhTb/dGFmBqhlKZjjXxhGQOLAhU0aZ+hvPTRLT/17ELxos0do1vFhz3qwQxWZdHW5qxIEQAySl/KVItxDuwmIbp8L1d5ijcFp/4K3n4TvjXfiKko6Q3YH0p1iQwGktWb1ocUTUgGQUp0EssCvG/ulJcCvHh7Sc9dcvYcpy1QxPd30/JgMtZqLJ+6LJj/XRtnvgycfA7gHl+DimaRmvYZswY+SFjKPYDud1pN6cfGlfprpDtKZaphdJWkN9rXB+w3DvH+xtE2E+aCKXHwCvLkUzhIQJvGxIhhPOeHfk9m0o/UYbLNMa/hTLR8Zft/Pc55hxQhNBcrh5V+k1DIta8UvBOXPOgxbU0/4gPngct0QKWZgQalQ0Z7MuC/0lct8MpdMhRYtzNDqyDKxu6IdHU4mYKaaTrZLk2zVxOSpxSgTLZN4YXl0R/T/527GERa8vQ1kcq3o2xNi1K8nvqO92b/YG34Y1y4YgftsnSbpqb0xl4GL4ZZDxRqBu4S9vXXmwM6r/xals1XpAcp0OER0ppwIWRfZMHaPoUkDSnlT6ml2eAvPn9n7f4UAOKGG+1vwqEvLxFWu5SKvo2kzVTe1uLaWEejuuTbNxw0VtY+5DTMjx9kK/y9ejkCOi08Kr3P2g/QPj8GMpqBjsf6bOlNIATVkqp/nPStTqjnvZaL01Ys163Dt5/LDfoG+FpJIsyC3csA2SqqCVDlXzzlGl3MX0+1eloB4FRctp+yaw2vzjJ+yU0oFOP1Zj0pN8AjOTDAqK9l3/zvZUJ6XdbSkWIVJIP/FSDVHW+Tn7ZqL8qmtcRmGUrCG8rnCBiq8YtNJvm5JVSx87Ylqa+6kz4IB+sBRyJbFrSMgiKG85d1ZPC1KL4n67JhZw6m6Kj3/3NtWf6Zmgwx83FPKrwjn8+qd8nIlrnlQS0TKd1MAt2iFe/WgysljOg04A/S0TABPXhKi33xUNx91B/bspa4ltBORd4xY0bn6r5DmTWDIPWkgbjI00whBKnSCSc16I9wpfuE2Fq/jwAhViw/jlvZe756qvlQHeJxLeY+HHBOgoq1zRY4wpEQD9FS/fPsFMoxdcV2ajflXGGLVfC1Yi1++E8Y6NiLd0QradNweSdBQqOqxmfBLDdJegmsL20cvpBR40WrLmhviC/NtZUSiwn9fqSh5ZJu7nk18pJ+CxZFs5kllLnc3dURpIu24bAJ/NN2kTvA87u5tSpgLQnkS66NoWsYB3kA6dEwPL3x0UneKpD8tOKpkkSdf+3RbOaj0DhcPQE3D/EFwazuIES264B0LTtlVrN2Qeceapb1+vQOTcG+Xb29wXWIuw7FeghvT/jbe2bwB0U+5AZf48wV2DLNtH+h6cyJPMUDt8bdTB4/fqnQ3/HIWkeaS58G2Gd/5KGXXnp3E4ejoVGgAuhdgWC2+xVdxHqhiepL9cFjyO2/ToaaBI81PHmRXhx17wsdIBYBBlDtNTdWv62asloQTnhTSSJyxRh+dy89bx/8S+RmaGbxDHRfxKelQH4cxs0wkgJmN5oV848udtZ/UDI/wJfdKTDhUdByXIE0R4SUmg7BNQtjo60IBt8lMyXhihJyYD7YOMJrHbr8AzU9tXVa5ckQ/kO+Ydqnqgnxzt+ecT0cnUdgjWPaJoJERhWxUYPPOGtqxa/vk7i3hlcJdBlYKUgqvmfSAXh0Zc/ZTE3syHKo3XNMVRRC74syRCD2y1/s4dQ0YcQcvWRZc4DFfuy1mgV5VbAjAPxFeMM+ph4E01BOkcrInyntVK+MMYrbM2Ewup/nWH8OkLLbod9FAxEeonOFP4jZaGzhLBp6Y8HbjqyrPT2k3jLsXYMokSQ3dptuNYTGomP/FkSL/QicsKOZ7RBByBvZq8fSBaj4paDW+DBOOtm1+ZqnG2VLd5dM+aOZcCxTbsq/3wkqIGcdt/eZJzSG+U1YvUS8vjU0HwsPKfWxwYhQ/SpOSadSnKOKmh2eqrAATKVU+XLql778C1SGjxbm3VJhsT49XVhrVZmhxV5B+dbK9U8zKdufc/L62mwxk5XJ2pxO/a9yfE6THdJ1tQqCyF/oIz7L0KHqNJeww9/SS0u+aeqxOIMzefWk2umpsKneL7zCEu0ave9cTU9G04uc5Zyukjdurr3qMz3o/lNOq475PI9Ka7DruitmLqf9w5/Icg2TzONO9mB42KhtnKHP6ZNafrC+L0FyRCrQ1OEoaDqSajMD58oXNMFOqvuja8V7Vp1CHZ7Hwm0T2kZDdbXfrbaDJrFzs78zq0hK3jlwtuKVPoOX+XuLr9yLs1rUh/ubl+wGh/C5L4obvvtgBkoaDtKnPruxH2uyDB/xcWAm38vAQd/WRVSDC3eq/FuPYi1ZhvQ6L3itYiH0b+/AmC74XIpHo0SqjtSQ9hKkltQ6+5oo1n36TbN/FSovC6YeDpMVZff4NM5g4WnOJrZOiur1+cw/pw7nVQGy8zZKJLfRXY37ELyGFScaEAOKRLoXeF4qlbzJFZ1KTjZZaCyn46vCxl895x+dpjjpWXJ4TzBNPQb50PTiSbxi+7fSTGKRbSbc386w2x9xv86AVyFaCvnRbVHABlrnpmqBdjp2NWcoZuL8Fiq/i3W+TpH1vdjJfFlStubCrcSrl+kWFldGWDuCgXqs1vm9mCbGONVh8Ne1zV10rWQgv4ZGj3jNjKtwXsVRegDiu/dJNP8+SlA3tp+tlL2Qj3Xk51LQeAyT9JNzKSN84ReyiDZnVbbFdbcP/vWYlHxB9NRSJeSbauALoelZK1iBlATQTV8JMzjzaszZgowrXG+fF2+9tcM2AT0CHVjZs1bW3+Z57PF5iANB/lm9hN6DjVEcJFonvrz/9VseQeKQEAq4ZRy3y/ViafELKow3r0Bad2Dshvsev6tV5KxXqkknQNBvAmQ1S4dzfpSZwrpt6s+CHt1lNdcOhoy4FAHKJ+zZ6YUm6qTWKBRff26NMLJfDjfQp3wi6P+tTTTtpOtu/SYYuVM7TfdeyDCrUgTbURrQGToq0NRJykrsBYfGwv44+DzCd10aWabe0HL8BYe68Rfo2wsEs12MrfMvIUrDT9Slh/m1HLmsYtIm4AjAaCsXKx1ur95ji+xbmQalA8BQ5eCuz0tgATXuuGo/KrNgA2NTufqMsigO6265eWOjVJa4fvtHxoJ+UXhxeyKMw1vI9o/s2G8hIF2x4klFo9xVUjvbIVEorEe6AS+Zce3wKEnyv0KJOceB5tNHFSNRVCraZBmedWo6y5stFSQ42eXiJq21t/vh80mby+CzSXaOhM+SP0T6/Vg3TROHU4L6f9raw7kD7Mh2TyuSjVNiIxkLX4eGmDHY5cx6/geshU4bVkHVUU5ui0wliwLP3weMICgmH1bhq+AMS+DIEkF/f2i1tLL8Xyu0W83QHAKfvPda9/BKUXN3VNOutpAjwDn8GDdtEOh0mUK13Ei/hbeMIONFARry4tfWPY6+J5vLhYDyOCYorp2rOs7J30tAXkAWXNgkb1iUaivoN+amhxiU2FdpA/LEEV0MiyMCt5mlUX593D4TF4Mvusc9MCdasinodG+yjj8fKnO40Y64nrpBM3mhnsjEFqQQGbAMh5XNQ0XBs+3O58oZ+VewQC+PKCUW4JqNa/kRKP5IYMH05INFastZGiykQ2NCuSzeEgkEqwMRtpqQ1Rhbx1xS+nXnxA0MFiGnzLkdmQ9++hM6BqQ0zkTx5gIO5lT9IeTXOlIAQIkgG73l6YcZWc2KcdXinWM7dEsCmomHl7MT/GCKzInqjhL/BMFaZT5guylCklwYh8lZMLKDrINVxDMhF4liDhoQb8WCqS8Z/XTbFfBSf4mpuhrXwvQlFgc7ZVSiR7WhQclcTbF5f/FP9AWCLiBg+qRDeBhfSZWHiwaARZ+r9GhWuRlPTWPJASEDfNwFWl/AqaZhqoAxi0AgdbpCHo6V2OFFKs0RU1MvBd9OpksaQ83dF/mjWBzA2CafbaDmRhuceh9Cd/F4UiKEgEoMn4BX9YkpnznjUvCJyLBoRudsrlrUPd55ZLohGYR3gJgYybUpXD/i4UwjaD/6OLExBD1GA6yAj24fk+VKjf0wEBX/Z/Ml4aWOjvZaQsCMzbJxduL+LezRDoFl6SQaF/XOp2evhmHcXAvScn24pnmwBtL0BTSyxPFmgrWGAuOScnw2rOWXDIh99hC8yNkAi0Im7p2o4z+eNxzeDHy2V4X4EtV6e8BUjw+4qg3bc2Xz3X0MajwHhjRFs/J1D+9nR/SxjljEtFbvHNmcHub/MCLMSk9jTaQmkliDmLy8YFAVjqQA45ePZ6XZs2+ECYAIqdpz4R6fvPmfAWfigSh8e9I2Mi2aweiUyY75ex7ZuubeW8K/y7+N2gFX44yXtil7vPdURdqNDbQQOusPl0lfvCjFb3mbZ1dK1h4k7C95OlIp/FwlbNq6qnMC8LOd0YMocCfvKtDYuhNkK+MIzC6qyZ/0FSBPxf9CyPhfiZ8ZHRGg5QLR+Zl2ZBRhpadJGWtg9VpkR4ba8m9kLJshx2rxH5Cem/JjmeevdGz7IwPZn5ZJ5Q/yCPV7wbZkY0JlTYqgfXil3sVZcnW+diDUpmhI5UA9HYtwGRwugX6k+gTrpwqv45RHtW3P3mhDdTcvGXOHQC8BphOpwEBRilNKzQZnKBDIF1BR2Sa192sPu+OJiezmppzVUfiCTiQIhckgxFZI8MOTdpg3011sk/+6bFp8AbI731SQusPF9dQQki4mYjVVQ6/NRobs7EzY4bLZ1nhKQcq4Mm1rylZ1A4nnMc4ZsKV79EvreHleeCu1c6fl62B6YHfdRqzgZm7FUItIK+A/A0Ic6yumFODebVez0Nt9qZ1ylkmpzo/auaImf1UjJFEqRP+n4a44Rj7xhpvUygG0EirkvBc2XsAfkd5EFxxs987HnwPoNFoSSctBHDp76vIio8lOSkMmXvGv+kxhZxLLkJGDyFZ1W45NMzBmqadQmMt2o4dAL31kdOEw2VVktsXNKx9O1iApgP9To/EEyNkPPvv8Nnyu4a87J1HQ1Vbs9nh8XKavK6A3EpG/mHoIa42i98c6itaxpF/XgVPDF/uKEtuRWPiMG+4tRPF4av7r9NPtzZrcj52RW7W2IjPcDtY1GSUTuCTs5feaRQbpuuuzRKRVUQd7ST6u/qVoUs/ThaSRDPgn+AklH5l80WaqHdnhVc7IYZfLIUEBkeQsCMZvsBD+miz+5QVz8P17fJPIXukjBKu3tdx7ApfuJCdPSdw3sJW4YfAGeksMBggGzY/I7ZAY8w9bqsqLm19i/zPhAg9qbq/v+qe9awN0aV1pg77uWEG64rUfJSbMTM5o5ISXcKXuuAzWt6U5spIEFfKUBSkIC+rCQE+UoDh0vDLnEkKgkii8jc/XHtgKEUxiGgagucdDjLZ/5LbXLgOxKtCxPkZg8AG+OACVqk+j5ny8jYePNstORQjEqKq+MpjujuNTQvK61IjTtT2ZiiYCEgOA2xRkXpsDWBiwGZImcuKClpt5+ydgl63PqQ+6mXqilk0PTEjKZ8bjdR+6aK8eOEi6zbuANa5iBJXPDKAc6KLa4lIk8TW09WTwX7xyAoaS70EJ06HUKKY+dVbR7BMFd528UFOuretAvGIeG6PIhg8vsfhjGysqw0Ugu6ChYzxc8ijvBXJgnxdJuf/ZAtFAO3mqs6iH8b9UypCJfUvBLpknyOplbxeRdZm90nXk2A48E6BtF1rnzyFrIx5XjBb3xCnpPAU+XHWibfsp1rrPkveIKO5QDBER9SOiKYo/qakqw6KvWcg6NYvdER/7HsrFMTbMD5J9BfmyKe12uj40wTqMvyXUgG+SORrg+ce3/N5W739iWt+24z3P769xMDjrVfKSF3GksG2g9IPE3ONSx2nqq/h8+vRJYztPDPWuGM2sfExi70YvRf3oK4QnECxW7C2yA17iP/xqnpsKFTct4wtkHKlDpXBbtEQ7P0bbLOeZBXG5wMgbmk43Ak2W4IQ2wqRtZHy3NQRiyl3XaIm48VGcE9GJk+sEUK4/O9H2Ed10TjMlztVELiwGVIAPN43TUbq/7oUzxlfcZb5ql6uQIz2/eQso+1p/5Eae/G29vKxz3f/+ZgXJnF9utqQLKDERxZnfd8zBGacKRbZn1n92hgeQkN+Onsr9rjkgzOhw3dL06v8TPhypbKnXOxDBQjjLU568QpeI+cr+rlyqOSmXHsPXejtVvjJJGPByLTs5BwFCcf9xtZoEzN+n0b3dUsZ1gkaTKatCNSjiMgfnhZMQ8yfn0xGolapcpvU3pna79CDjEI40+qbaAe49IN9q/kX8fVmMoeb33v0Hxh5b2w8x9IEBmLVQQbg08pDAsrUuoBA/TOQnf6UHYy1Ve0XjSjI6BJ6olXwHmxTTdkOKAsBy1XFa7OuJijh4fD+KeqlKzgrVSadjBLTfK3j/0sgnG/wZgewGk12ohkJbuCyZ0Bvtu3Z1UTbxieI3gKb0rIELZownQcaOs7W4WUz3XoEPHsPd6nWskz4NFJ3klVPcQEc8sqf/JGUfY+3xSwIGd5Gl836B4SYxwceIpkV9qYjgO4x7oNEq1fEE+NBSToZIpb/IJHer+cywDd7Ai8l78OPi8ECEMo9ULBqzL+1zoEFKY7D+51Abc/hmAHZS1Z2OkuCMFmxiROpxNNge1dwLmNCZth0ySI0y2AB6wC0NIIBzclErBD+79g8+oFOkjN1ycB9ioH9o/P0VcSb6l5byAUKlmOMd80xU04jCHtHFXVcOqJVq0pOFhKuSapDMvLCn5M9B4PwOw0BSSs0SJJkY1FG8EuQeHKGCA7qbIoaSQ/5wXM8GoAGVzC/fJtxmT3Tw4gz/uEst2atZoBxl6NWJhg+ML8rUsAiXxrXRZrEirIvgHxWHh2kmRyIdMzAtcRZ8EGdD7QKpjPfZQX3yphQ3lpfq5xamf5dqKS93h7W7rJzHOF4fX3nh5kKLLU0bqPTiLMzGzH02GtKuUYJ69BK11HlPVrsDOPQEVQN7hbDUHGnodKZcFm/Xz/kzG7Z7Pu1YXjUBFdRSF5OYwYSlMBqEPxFQKXQ1yp952w5p+ljvxDmWw6DAEoLXgFh8GI6I4MGvWney3j0zRhwWDVwLgiIKg2rYBD2TWUuPe9bx78Wp9nYvs9bWTYijcc72MPuff6cYO4w9eis0bXub/QMuRo1Hmn5BJSAaLHCzR9PH8M3G0G/sVOgp1/ls7JLvBsZRCHGmB4oH0qANKRcltdMjgm0PJH5eSCXDdctY/opycrA3ao91dmb+jtSFLMvfjNCjpShCyJNyf6fYGOP5jrz1rwHXNc4FPvvqhVPn602nJ6vuHDT0NlhyrVYGVQJ3KfPYOn/8g0KVvpO/iZdyRNQ4qaRDNM046ykfXqIM6IfqrbEF8M1PO5vryLy8sHOYEJL8W/ujaz82xCnO7XAUF/OgcGIDahWMBya4EuybHxOEMgXTO1rPt7+1R9YT54WbDn8Fa/WU7ioCxfqbVKQjKC5bw+t5lG31pjaIMcxBEwoWoYe3IEDV9ooS2M5uywWWgKlUUcoEAepxcX6H8bZCsco7ThYA+XH6+lJCOuueGfZKpHq/nCrVWOJh4ksSJE/7XRw7gHv0HxBseQBFePAs2hGRsXpZCV3b2A1DQk05FZ4knVRSoHCOLZvbC1UmB8sunxVhRSPFlrc34fkJNXAtyY707Raut2hPYlCd1csHST4fJI71Ah6rWNNrzAY+U7qYz01WelgJj913ePsF1miSNoOYB4xHM54tLGnV/PFPoX9J0PNWcZPzuOYVWRdooGblXZ8mC5aobPbKEWzZET6HKokO0aV/g2pHANkhrL1ocQy74XrnZ7Z9jtUMQlIdyyQ0Cax1MPvjPvV9FES8JBV+Jjf98Qih9lNL38nmyHFZLDxuNhgcoUCItPBGJ7mi++1aCJtIibrBwrVDTH412flF8R/XzN7EaT/7ABY0j7F/AitgX2XO25l1Z2a45B8O8qA9vglHXWCKg1Uagj3sDnzzYkrh5ZHTDcMQQ3n/Eekx4WQluli1JtzbBS9DdoVedn/ndzCY3eBhV4WG0j84lah8SDPBAOyKp1M5oNZR8MRDTGplrERNPFdP8x+1zsv5P5C/e4Vl0ZY40I1OsArllHKisKLCYFRizdsDED1g7UocTC6hSM21eFuHGI1RfXyXF5bifTMeCCcBNpayqqI0UiySt62/T/ajVe4Rczz5rcDJ/RPXY5ksQqs8UGE5VTUJ3+DA8QS23LlgKGpUjXUJijctOHAEH+M8/TdhobybafJxAbtlBbjGQfUg/JHjgX3rAqy23HwRByzFrvQYc23qoodZOoVtxTV9Hhyi6zdcJAvVNsY4NTqCCTyJtMXf+vCxBYkZYbvw7ctgxxsZNwZA03ENy3xrFpDcEi4TJzKNJ1VmJ2gjrqv6Ok+NxLNZFssf5Kuf2GD65MrjUbIcHV4caVpWPcpavUTrjYN27bKUj4Jll9qOikUmdPiRW40VjpcszKkqwYT9wFBjdNdto6jmTvy+ihbWbBk5WLWIE9H6nDd2LvrXcdOnpPfs3PI0xEeScQ5LF4CDLCp9wyPWva7rK+62zTDflYZGjMA0rsUaMihyCqVw1sq9LBdgWTt7EscJuWWfVvPKxJW6IumzEap1AKnyFGZIA/Tj33QL+PuI0bCJJX/7vt7zDdlubSlJV2M0L/2m7HPAhnW2VwGW1pdBVboLFFkvOtHFjreIcms6SvK9IcdKafFanjNnJ4Bqt9R5XVV7rWltzP+hnx6IVSeNwfyLf8u61D/yy9+GySvDvzlvT2ynjU3rNFL3/eAF/f6mYWgzjAljYGCXDwKvvKVlJhVQd68kY0MAtKqQfxYnCUUjklS8I4qYu80VzFbqHOb+DLLf5lqegL0SW9hP74fwqvUkoAE07r6ZStJcXPG6z8U24J+DGvsdyH1YoCZ6789tvaK7DZBVbG3ruj+qccBjBGC1lb58XIYIzP/STknES+/dZs/UFjdy+enLsmSsGXtVT86lzuaHKLQ6osRM+X0/NLuOvzoyX3MOxx00q6JQpCGXHHjP8RiSo0otZJNvDyrD6OctLZJXqnd+PtU/ya9YTFzBMYIx6kmbEUP2X7bhRbi5YPSTZP/XBDpPfSW+MVFke/2rH4UZfIx8Lioe/klAKaUHvlf6lq6j55aMGYrZ/C3os035GJlAzn3jiRsxBcFUtIaxkOngKYH2CBhJT+lamGxET7AxOr1YgJ0OeKVUObELR2iv+3QZcuppocZ1ZUv/joOv2KMOYEpPtxxEfoX7xBfPpXkolx9DLXVYpBTzoav6t6ZrfSBEN/fPGaevA7Jf0COVBqQLS0kqN4lQapeUQByJJQJizIAukrc8UMpLYdkvVMmhea1P2cAD/lCG61jWAtCKDvwtmg53y6HP0Pb4nddyFy8+ezoYv1BEJ8aqUvmsb0MsagB+8J3czIcEJ4hjdyN/5mf+VQuQYrtJYcWcWjRv5EL1uV49288Man5VaIQraYr4QjDueFHTJgZ+7+y8OhIWVpE9tWOJ8XiP+ckw1L73fG3dmN9rZSlwYZpRWr0TNQTjFaeTgm46vOQGixmyEFGSsdIuZFDfZSY0v4yYzgDsHzeOqbgpJLgejD/ZKeGBJTg6wBCn5pRM//y2ssAdPXwsbcSa9TORMVT3ij3ReUOR8SOkkqP4oEaweq6VeCxl9HSshK0pMmdoOEz31hf8B+6Jo64s0eZAPoCgPdEMfk/4kl/8u/PVgHIs1xKVMwxcs2UidLS8WXK03S12jFGBqDnP08HNeTcmEP/NuyWYsaGVsv5ilshXUpuzRw3EmoZ0rWrsgjQ++KF+8UjE+ptqafxqIsjdrdcait7kaJY65sF/gf9xIAS1wqin/ZQ/42I+HWHvWgsiWk5Z8PTstsyPn+lgxsX5cTQ1gnjwfnSUdNBd2by07TeGyOVniy5AiiSgnojlrk36oN56bJmA456H/4NYvxWwQGiuoT5cZlpO2Gqq4xdJunAALaplWBacnZ0MXhfGjxCbMzLhVMcyUdGJf4qzvTDnBZ1fBV2Eisdz1T5lIfo7T9fiSIF3vjrtdSZqRjsV04YW5IL2wgkO11XBG9KlA8KoDuwkU6Tjjj/NG06vilVifOksO5JJuj58zcP9xFaH1oROMBwY1MamLIfy3urP55IZUARL6Wp0U78SyzNU1eEFgxnXGd8zSP1/LkG6yD9Sma4Q4/Rr70uHwGM+VYH84HMcFYk7fDn+Zy4pnfln04zcFvHpHblGz57Nuv/APeGrT7dIibK5r51acasBoPSx1OGblFKLtwhcqF7dl3cZ54lJxVI1VzMWbtxzU222z31yarJnub5QZ4PYOftOr1BL6T6qjZj3JAJbHZ78pl4wXOPmuh8RK11kcMekZYoJosGAHb0oJbZZRCSyrtwsVUn2hMGkPvF4ldUKAH4c1kRI9my3a8lQZ6mCtvGp+D5Ywu+BpjKQ8fNJnDA1/ylsy9zywcpLf5lSNQtpvGTE0ByHJitFLweDQ0XtmPKX2/iDU87+vuzBwvvMNAsjMYu7oBidGZJbMWM1gueaLf7Re7kWNPGXUF/uuCj79xGfmrWE0xk6VUi3U2JQaotGjp9ykG1mcm+b1NFwLjpcUpr7eS8w1GlrDOFzylwukhrwQpRYfKix8ZmXjhWyb/oqvCWkHKNJ5/jy5ertG1/iuzxHBRzEjHMyELNW8pVMQhlR8qASQ+3Y3Fge3kekdBmSgYMSOA1NceSeEGO4DV3O8tNY30NAHggGLywAIaFF7KDWDeQbAKliXKZPCEQmFJck34JD5eQqZ5cvzpoKFk1YR41Lp9k8rhkJ0lLqvT4Hg1BwVCwj1KyWOEAO5CAQxVq8kUzzJFFrDdot+EwVyGYc2aoHDP6POlH6bcsSYRf9m2faB+d5hSKcRUhSSRtzYehUb58tnRznTWw0Bc9jyhOV9XwYoUY7Eu0LVysBlPoAqoO5uzj4Clgfk4O8vWnN4Z6ekcoOPyCNXqRX+wghg+YpZFoTo+X5ZE7VtSrFOYrj1IM2PtkXjTcGQ1yo/v3wXO/PLNKCmUVIUQJKY3/W97Duvu/m+GIj3bTpSpun9GL9zETOc+k9MsppnSNbOQh0Xk5wF/jUJn/6ZOjQ5z0175GGRJujl+TF7AvGV2j9yQnQ4arQrEOQeCDxQkrDmNO5oePwDZL4DGgi+h8ZZTj2zvV5lStxrLjVOQgOr84raIqm6+grxqEddFtm6kDkorMEMV8fv/NlIqml0NaOxw8v1t4oupPjB3yy6nfiNA1F5zlbsIuYj02oKaT1yM3Ihe97Qmx/6Lr8LYZ2OJM2r3pPtlgqVuhuv257wqJd51KrqOs+32oQuPF0CoVR04dgjUSgrwOScq3frdyRDeQVZVTYM7ql5ywATy+xuFrvcZQh1VtCWcHzTXFXPZAxDjpAepIDYSFydnUc0C5D9QbNpQSehqvhbLVZ/Mer/I8yREBIEUeoDh6iGwL2D5Ts4o0X6edEXFel6OBxj3P4UigBawT17pppTybtizmjxzy7j0r4MDXsMFYK7Yaov/dgU9sGOH6dBzpAkpMelZG0BZRsB2digeG5G+LRiLsePl2C4M/VfCDtyjldj7H8he/0GEc1uEm6TG4TnJLxgbZ4zLkzwSnbxgKf/dvTXdvHKRsJCBLaOlxQujb49pq6R/WWGxO+GRRHeJSrie5zLwXsq8o8K6NoYA1RNmy8r/sms3gz5WRN1oSeprsTWE8OyQBJCq2WZgf0XC4RTeYj/z1etrePSOtZxHmn8Fj39i6qADx/ZAiPoBZXU2hHypahWwdDyRDJHrychaPuJ8hAM0ukzvUdp5Yv6XQU5ElwRHgGK5ZTO2vNXnMTt6fHI0m8VcRaKnpqwU64n96MvrhzzBJKR8hM0flvp5c3QpbsmscbxBBGIXvC7vkl0fs7Y9Zh2IMhXg4+P/9F8pIoNYtMfE8XoZIAO8D8uBrl3g91KMiLweeTx8PuPf3zsRn5yreGv6G0KaZoDoIyrq7HLhnB2S4jqL9VPdo52RFEuzbN6bHYcQ7X4O8QmAzihCCDfhlgBxR4U+0jp3vNyskwdfWPiw5rEdtD/yxCY86ugnBVv/TIgDh8GsXpLqEDrEyTcpEZ2WhOcd1Uvs/fgLYLLwIQS/PLetOq56boyYuyYv9YTe3Mrquly01fTaVVoZK2jzteGK07J9O6MHbdPiuT53ol9DIdD/PGKnXhKRyu3egzSotAakEsYpkZ6++foMXmBXPhNMI7btcVHaGZkzWI49LofEff2FhXSzvasX6R2BD4+7knJZtvfkIRJgNdMHwksiGH+/xb0byP93uoBVZ5DychwJ3l3gxzSc1/B22bB8ZHkSXmL9/j70Ta6g6jB2CLEc8eMRe/gAO70gWl6pOY4TR42G0Cagr47aApKYbQMYKpXQnpZVHbCtsStgUrMullIvCB/RC7N4f/KdWKOeFMCwthi1Z41QrAvOJb0d8GH82yafPZIqxmmZSeoWenwQXC5zm5I7MO4RCsyCS3iOCdOPsVX3/aA1DLxVTw29c8vRsly+8TKKS1KEl2RhzEOK3wL7YtxdQ2Q587s0O4sJlp8Cd7QhCYcODgsJxMrzs+LAjXlem5ra3U21xPS4vIUd60SRyT1HM1GACYz30xuq76Zols/uTuRElcku6z/DRlJl6KuxwKdmCNey7Ul7SW8a8rega8akJhQTPxuH6q8vmV7Twl7VXaIROhZLYfXxsdSOUDzd/oEWFXpDfoVHiYx8TxsAAVurKz3/ZVDU6hIprSWdFW6WAyJMSVUcvVsv7m8yxXlDfVPGJdEkH/FRY27z2ib1eZnyouun/VQZ6K+ttW9vPQknDmo1eGBlm15fRMA1Tt82QjEG4Lo42UfqJR4h7+puqgz1sz+mhJnWnyuZdM1/bSzv9mFW0u+azJANEXIW5KeNhgJK0e/V/lcmMkcENKnjbW89/rc1TSuQG+n2Hrj1X5jmvCgoV3Uj5+ZbZHmCd5wH05SCTea9zKLuSqSmRZOU+If6bUOxwEJV3P8Il09g5u2XyL2Vd7wKOYOS6MBE3gxAbvwQe66105N5qeqmT8yUnN9D03rLpY26kBzef07fogGsufwIwefsQFyaVg6HFVhHozlkzXoTSjYarTnDC/uxsfObBl7c9D16Arithw25mwpxzvrdAWTYucxNtj35q+zOB1sTE+GO+AfMZc9nFiOL5ZgQ0GMz3tkZ1m+3js5qPJPK5vtk47XaBAIRdlB/MmQs++yCcxGG6S1a+/vzTQyTrxLzuuy4Q8jQG3JoUmfEePNsVwoj8LLBh2C4imcX1M11al4BTvE0vCZyv5SijT/FrOzQsgLxsavwgli6uO/aToIg7x19D25BzlDyKXeZqtgKSdtXYVcIPoqN/Kbav2vAoYNHA75Skasr+DLXqPcBScSBavOXc3ApGXW3K8jnTOPJqaQLAWonk6QTsh3VZTT/J8Sqm3Js1ooyGS5uBaDQ7eT9QS92K5igBeD4840M6D5KpfsJQVjtqDzT0w5COd9PKrKS7SG51YUWMGU4MQSpGnbzWO4i6re01fYJdk94ohyT/OAwI8DDNBdNhHLVjLNw5zUERyfI+fgQ9Q50AQS5Scg3VRjeMeHpcNL8KxXx5O5dGdlMTJCzPo1e4wgt42HstIvyFREwzrVApzwi56Xu07jH/qzJK77CGTUw7D/8t3OwpQLSLUsflvTOToxes8eMFZ1j2lAammwRNnDosVpv61FPp3T3k/EYooyuGmFAowMoHxPb7GDYO+ETur3okx3NF9/WmzPG9N+5C+AaLOcz53j7WEB9SHYlLftosEXLp+izUbd4CeTn31UGPCkcE4l3pVbAeNwsLVtcC1TIAZmsWS4JoC1KZ8Lq0kWSN78C8l9T4x2NBQ4PsAUL3GlGFB3nQhuSk9y1AOxGaQNfT+DBWLNMAVExx/P98wA1EwWxC2LHxOXvIr2RRhWT23j+BOMMrObkrCS9KTaG4niAGkRX0ap9+zplSFL4zGXUiUr9sCbvx/orghNI6hnS2U9NqreHIlPuIobEwdV2Fslbrg/iGifHwbNJRE1waClF2eArseznLp4wwcovOfw6RBYBfe6sMOmtxu4WcaWCYEkuuMn9lNBHhKSvrDci6zxlzW90LHH8op8WYKNKlZzM7+Gb5sjgSINDrT529pBVL9VBLVS0Lfm8cT20YAUFR37S1HZ5IRP/CvPBIZ7GjfCn+jeQqaxR5aDRUSv58udwNU9eBAvrXUKMYapuMwglBQggBP3vHjWXbFH5OXTvr/VaxLt3XVp4izxJCiHnV7Dj0oMqHN4xAziE4FOBFzwF847OsytJZgGDbFwN22NxJ6iWKB08bbYmEAQMZvm5NplNKFNN7hEZuVcIHzqfw+BqqlV/NWiwJ8aORvg6Z7Kf+eJCBeBdOz8u9t9j9WjxxC+aK+3Jn9Q0l/vZJ1fuv/gDnJAwqwlV0g0ULM/McjnO7ER+YpQWgc85Z36QqsG0UFXxz+crBOO9Y0aQD/KEjlcTsGvEJ/SBVb3R66bUDvIomglQ2WN7J1QViI7E0k7GLZ/MRrsqkLw3rEPUS2Ohxe7L0FfS1G3yjAt9Bh1d4gDLYI35u8b3aNhBnpqYBc8tX9Pcr9oFYgZU+FUit30QuvMg4r1iJZD4npSoMwXK1yVjg4+gWpkZJ78ye1CGkbys+roSwrZgO+eXpc8X97ryxjis0HYqD1dqtjh3lg7P3NutXgvMrmMsLBq6/wCirUsfmJ/b/4My10pq48wRIWcMOdEXbQtY3JhKgTdBhP8efJIZLOTINhhAPf2xQ6KuRa0w9ml7pvAhPR1b7VED3ZN4xzEsAdIBnerzBF+1/kgeO++GiFW0KBQiJM5Os74YlfdPxmdlruXhvkf2UsfWxfaTdqhV2GpbSL2G9DRPECTjLDTGNAwovIY+2ht1y6eHPnZ1E/DYRl8C4+JIyhggf5C1BJl5wfoO1T4v6faj6F+97kIpQdu4XTT+hHTxl+mkMZFYLD7u3qUlYyTU2y89+uMH34MjXtVGz9B/daF9YC48PqircrL+BiR/iFV0o9ubb5WZf6Fg+6d4i/aJ8+8e3xs1lemYofqrYynilGN5UVage2UnwEB7HCvtCH4G15Fcvk9VMGCeYKYaGVdA1mkqkPz8eW+/lmeyUT+86Ktc7fsEwHItRNL6VWhNbI3/xxjOQn4RB4wDP9u2itLURU1zhKOZ6I4Hjdyy+uUjHFGKGz2CnDgEvUZVNxLXibq0O53pHBpOvD4XaG6488YPOgNecdaAY0IHK/PCkV06H/ul9nN/1tlGXih49sIX3h2/+8z4lDuNP/lPhxmmQM9UGi63MmNAA5zqwP4DFrcDWdnZxHINUOgbNpL3yiwI8gN5hWcl1tbonAKIdbr1/1QRv+jZW0lkXvCVvjJjqFnHYal20J3NfOML5TFksTLZYh799HG6XD3Wt1uEIO/ks6dmK/aNz0SrAll1qwZ+UmZyKlQk2gIiWhh005VxT1eNRO3+kFA7fm33Ha/aOSD2Kjy94R3+sqQtxDai7MFtFKcqw/xnbMfBVcPrvHExOScOfBA9fXgtTbLpYDrKCb+hLQyiU/twzRK7ye5RNpbHvNpDOJqN5KJAWVW7bgtbg1aD6wj02xZI/ERaGpTp+3vXLvcdxi+raPLUKeHOKHP4E1iruABgCO6u4SIzvQInVNHZtHJ/zMjNXRPuvUWgKbNWQYzhcWzW/qFQFx3t88tPRUnRWQ16QmdGuZ6Q0BFhq13zJgvviSWjIYKiO1YsFtwNz3f/fRa8BvOzN5kfd1nZWrXMb3vm6U7PrE5Jqq7ZuyipzCJLe38FzlMjY1lXeM4ws64iPZ0JLF2b/5m2116YQ26PtrjDe5C4joThamm5bwDdQqE3r02vmfZVaaq+FKIn7aq1P3kKdb27vNlhK0DzORR+qlhz+ASqeMiAss6o1Kpo/yoHY9nuMkc4bL4U6v7+OGRnLgF/BlGXLiR3QtDxrozoE0nLQizCmwNMMINAMqPP/1/W7HQUfLhlLOUGzMd6t3MBZwVQU17jjYl3n0I/8VdLJLeRyEQ5bpwpip1+QKY5f5iCN2GHeWs+97J2wAadfpa2Y/xMcvvVfFJwLt8wHzx4WAr2Nw5n2aBsa1Bx77B4U/PHW2HN1hX+xOtxLKcLtUwIoGJ8amdMd9ogebSRdMjls0nIMPtgzwKoQ0f3EHCho7ea+WPJ7Jp1mb5mKWt7zNcg7gIWAubj9sebfvuc69CCm/+YOBq21ZDUlIvm60X85t/3SE99ewt+vi1/Kei3pcZbNDK5PQPC1JLlaIA4CmCiea/lvjZNNo+ZXAfilbgLTf8uCnNxzEIX5QS6R63EZeYKK4TjeEn/W5RyzoWhcfGYTfqp8kS7t7ksXLA/lB2pUS1ENzrV7le49OEZ2r+r79WW08N41PVbSgEOskU4y4uzCnJRloz2OY3qR7G9804HqQQ3/xhRd0ZB9/hWNI1bP0RbqLn0i921Yn2vQya8rGwCMaifbYRw6HKLeTuKoUhZYDh0Lu6y0N+8e/J+OMGCAN0qAVlXFwX9Dx/Oilkm8SRVibA0Fh0+SZvkq5ZBfM/jqHolq6gTTiblczY9A04AhauesXrrysjAG91dBB61g9qRpqrWaDxQPKkPh4I5Q5IZfx53Tj9sVfNgETqu0DfZke8HB1MInmjt614G5pLtGcCKFjYmFOKKMNKx0Pgfvo4eaa5yf1y1fJM39fNzBWt96STDmh3XGnLMlwbsx0ZyjDsOWJ6XpKDK+nPxNnjQ6y+PNPVZxqKAH8OZsCLx1WrIYjlH4jQ893ryBq//qVyWY5wGvBOj3z0OP31Ee1Mh2O/QHmU9evKEb+TTx/V8a6Fr6HE9irCBNaLu0XYcJIxpGyljdW72L6Ot1utGneOVj+AE9OJc7QAAHC9uftY08WfFUS7fXinrryKVoGb7Vj7fqs4k+gpq5rDFxyxcWZOsNFKDw7unyEcZZF2ktz9xoqangioZ9qE/ShnsbEx/VK2i3Ak0Ovp3kzQY3lqfDoJgQNBd0I6b8hMgS4H5Ng8fuUo+2YGOjBmlRkSlVnnnv08Yo+L77ZdjDq4fmuKmfq3D6VFitjADBGNhtLx/0NWfmh3T2OoOu4hd6+ciEKd1+IXev470pLeAA" parent="1" vertex="1">
          <mxGeometry x="-70" y="773.75" width="118" height="186.25" as="geometry" />
        </mxCell>
        <mxCell id="ogEo_6NqqmNYCkTCZS1q-9" value="&lt;font style=&quot;font-size: 14px;&quot;&gt;Developer&lt;/font&gt;" style="points=[[0.35,0,0],[0.98,0.51,0],[1,0.71,0],[0.67,1,0],[0,0.795,0],[0,0.65,0]];verticalLabelPosition=bottom;sketch=0;html=1;verticalAlign=top;aspect=fixed;align=center;pointerEvents=1;shape=mxgraph.cisco19.user;fillColor=#005073;strokeColor=none;" parent="1" vertex="1">
          <mxGeometry x="-480" y="253.04000000000002" width="110" height="110" as="geometry" />
        </mxCell>
        <mxCell id="ogEo_6NqqmNYCkTCZS1q-10" value="" style="dashed=0;outlineConnect=0;html=1;align=center;labelPosition=center;verticalLabelPosition=bottom;verticalAlign=top;shape=mxgraph.weblogos.github" parent="1" vertex="1">
          <mxGeometry x="-70" y="253.04" width="130" height="126.87" as="geometry" />
        </mxCell>
        <mxCell id="ogEo_6NqqmNYCkTCZS1q-13" value="" style="shape=image;verticalLabelPosition=bottom;verticalAlign=top;imageAspect=0;aspect=fixed;image=data:image/webp,UklGRu4qAABXRUJQVlA4TOIqAAAvWIJrEGpR3LZtJO8/eO6k/UWEwrZtkNLwEoooLqT4GspmlnPQ6SlwS/iwlvFd0hm30Pz+/3I5ljN/5Pei4TI0Xma3+zK13R7+H+b/mP8gu/wF+T+O+/Oc8/zO85zznNCvFhWGYfYizDB4oULtoBefRUvOoivMaalumJMLYWbyUEldwbOwVCO5w+TeWQozJ0OWwthSOVQKPdItqSXfUKkV5ngxEKahVhjaUkvVi8vcUmB4Whqe8SJgVRi7pRNoDZcUziXJvQgz51JwmMdSe+dgtUpD3jk8zLQM1CLMaQ1ZCqeCJ1CqhRWmYWYr1NEwz1QYLC9OmJmZuqUBBy+c4NFALQIt+YaZORkIZxh2AS9a8g1ZrQpWsBaB4fGEOQPWJYdhsEvqnWdx5VA/0rU0TBUYcPhqsFsK21JaDg1ZciLblu1GYM7eu0MpVSlTNtoEjMVYJh5mYEyybdtW26b//xczLAijQVKYU1kKcyL5lpnhRQIYAASYZNu2bdu23bNt27Zt27Zt2zY3AVSs/19tLZM89zXc3d3d3V53d3d3d3d3d5dw73/vfe7d+/zeeO8QaAzB3bL7LxK1kx0GoAOw5O7uLrNwp7pFNjINBsAianZI7h7dtdFIdCqVaJEBEMnuTTs06JacyhQ00qgsdxmCu0WnMwBI7jQS6W1Ea3TeCEMg6gDozIDFENyaRvf+W1R32tsYAc0h0XQellgLggCAZaPX9JrZ3tm2bdu2bdu2bdu2bQ0QBAAsG/3/GdVs2/bOvtlJjbCMIsl28iNRAQoznjjiAwPcEIKAngAdVhSiC22FjcJD4Z9AaeGvcF9YKzQXIuvIQyGmMFP4zaAo/BAmLBNpIFQTPjJoCq+EkpEFQk8G00qhRSSB0J5BVqgbOSDkGRdsOgtpIwWEYMJVBl3hSKSAUJ9BWCgVISAcD0bC5sgAIRaDcV8hTESAUDUoUSgYESD0MrABIza/ju30pe3nnIrby7lt98TmtsLIU48IEMZizZbYWR4c+32k7I5za6OmYEKPiABhIpQz9w25CrfKsw0ZBwkDIw5atOQqvY0eiGTYoDHHcu+odYz3SiyCIT04wVU8J4IhEzhHtY1v1kND3LHeezvIpURih7lybPcBVFWUSFR7UFVRIlHtRWBsfmtIcrZloN4keb9Qb5KcrbkIjKZiPhXQaJ8KaLRPxUP330P330P330P330MTxSY3z2c8lOczHsrzGR+BMXdaW+++rXVPdEybC6BdDIxGx9RDuxgYjY6pj8BQ8qH1rUK1JiIRDBsypkqtY743YhEMnDM1tSYxkmH0Md1rKg3eiEkRDaxonZY6c+VJs6XoGAgRhER2UZiPcYNGzd5CYqe5t/M8UjBzuzlzvzE6A0I4ofHqwmuGtuE6IaTQW3jPkDdMJ6QULjMEDs8JOS+GESpf8GIYoSKEuC1GqizPSBUhrPA2YkVoxIgVYX3kivAiYuXuaHBTWzRkp7lTo2K/bfZI803zw9Bt9lC/GhUz5+jAprfEWMYWu6GopEbBku3nwqhkmE+IhyUbXGW9rXSboS11k+cq2zKVpIFNbM5gV9lWaWxs08J77w1r0ZKr8ha6wcBszbkqt0wFa7rEMd0brsJtLshxDPJcpY/l3qqFNmzcWKXc44LmzClX6e30hGPwDNRyR0Gzrs9Vu0VLSJcqtcbGbMItCEuFFKHejnNDsZ7QGMXWQypcxQfYBGEr+56SEDG0q1FsjlSgbfWYYjVId9Uq7MHtkeTl3p4QJPJESCZ89SGFi0KhSBMhqHCC83wrQuLIEqEfUeGn0H9aBImQVfgDkcItIW/oVxSPxzOxong8nokVxePxTFOUbLvH4vF0rOQ24/F0rOQ24/F0M5Tmx+NDjvnegkrz4/EhjVBpfjw+pNFeCKGFmzRaKYyZFuJNIMlY67SQCSQZq0cmkGSs3gRtLkiS5JypIfVJkmxA6pMkubQJupPkTOuAupPk9ULHRZLXay+eNv0oXPiLoV3chzvKDSTuwywk7sMsE2TRN4pk0TeKZNE3aoLRPhXQaJ8KaLRPha0QclT6g1OEBhEgQnDhCv0sTOsR8bE8/f5DhdgRHq9R+OI/Cs+EzJEdwiIGcopQLpJDyE54c1uRNMLKE47gEPZBed6y38wIKQyK2BCKEY3tPE9c19tGDyWNUJgsBI7MKBfOQFvqFte3pNkSRphoF5EhVCGa09gWt3HmdRmhsKxdBEb5l4GGuPM8JmaAV98u8mJdos/aA9yiDZtggMK88ogL4TC0vZxz4bnybLQBPu1Ii7MjmucarK8wQKF7hIWwDao24jZudisM8PwiKoTURPNc415vA32F/JEUwnRogh9cbxjGExeSRk78zSlIgetXbxjGJUdETAhtiLZMxT+uN9O6MN5KeaREH6SJiOcn1xuOUegSIfH1iUZdvx/rvZOH7VbIHRkhzEBiuf5zS4dC7CpEioSYJnxAprqBHLwREyBefSTEEyCaFRA3KwZRqBUBIaxDJrsBnoQJ7y4l4mFEZ2RMoNxhEG8l4uFmCMbqA1ZYAPGtRTrcCrKZLXMD32GDxkDCk7uLbOghfEbyTeDmQ1whskEoSjBWagZ3c1sF7VZIFdHw9pF9uqasL0P4MkKgdJ9Y67SQCT6xXSATfGK7MEGbC5I+SyP1SZ+lkfqkz9Im6O4zFeruMxXq7jPV6oQbSNwc7llCXCL0cavj8UklLlwdj08qceHqeHxSiWsCt2ZSPF7kwjWT4vEiF66ZFI8XuSYobdFSPD5HB7Kh0iHxeEM2VDokHm/ItjghDtHWaZnE7Q4JZ8tDHxX9p6JgSlqRUA+Z7Jp14SRCoVLkgjAXSZnG3Up3QF+mPGJBuI1MME92DkKhQqSCEIVgrNE8bj4kHA1DNIQH1kUmuib2JiMUcoUiO8w1xe4JGqjYTnILKVAtx3qEAcg5mck9QegyQpFOis2yPmimdSg2CUkWqpUbs573hcyZmqncAmScEDcEKfCUyu0CJdtcoFYFwny1BtJ6hMdI67TM1YBw8RCEA5W6XuIzPJXGEK7dhUoduljPyRIsc83tjUaEZz8rBOFWu8NTZuxUGn3fpcp4URocnanOjnIth9azILLpLTKZ2xOhUMYujBDSLTGvyjdjgKO30m0tU5ug4hwd2ELXldF42aiGCSrOmdqgZkvQ+Izb3F7OTFBw6W31SHcaFBbOq/aHFaKZRGiCvGCzZXdBhOW2QEgqDF+S4XLh6Q8S8ptBGI3km80dhQjfR1jfaxSWCP8ZVn9gIVvghNXIdNNlIjw/yxNK/yqG2yuPVB4o4SRSbzq3ArkMq3vwSobhhVnlARJeAjHPfJ2QKUIoa3s5lQzLC8MCM43gANf8c98Qwn9iabdw4gzTH3dAHjayqS1QwL1zZA1LOyTD9cK9nxWIN4j0VuECkOO3soXGhe34EgIxLzJKhVZpIFzRwk6a4ftHFYgngAxSwR2ACA0t7D2F8SoXCMA3RwYqcU7Iz7OuHpVhPB53AIQAJK7EJ0X6WNcXJB6brbnpuY0qDm6ZykRjs6ynqM0FjSq2TusE79wP36yhvlHFNhdUD4sZytlGD+08j0obFSwt2Vr3rGYsp1NNaaOCpSXRMgNCqwAIHZF8JXKRcXdnWUImrDbTVTdqoLjaVXeSoZ6uulnFBoY3usqWrmxkRrarbG4edjRznKUSbvOlAP5xWxDbSe64KnfEJrgqRw28Y1flHeQKVtDfVXjsa8Yq+rsKX1FTMWjxAAidlJt1GURoaQuGuUqP7YIMd5WuaiIC1fZXyp0BFblKf1us2lV6jg6YZCWkQY04IkwFer3Gr3/Hawld0z/hWQk7hIPn1aePcKdrV+FBnz7v6VMKO4UVnzD9g92nUPwLHjSobT8X1HKnIi1aUst9wdABXLW/LVLmqVWYRFZz1W6MmS6uRhbyKbX+0Uus9e1v5bye9TgG+Fd9mbP6A2u+wQsPToMVG4T0UywO3ZNimchEV/HXjGxyCxRzB5jjmyt3RUjnL/NSaGrhl3BqjZew7+Az9w0pFkVqFDtLKK5YDdJdtQqku2qv2XRb7wE13BxAzSeyG6HpQk7VcsiWu0WRlRXzFa4Jw/9huRN1dsgoRWZZXxAg+dWEUUJG5+nxIjMU2Wp3BQeSfW5PCO8wCTGQiYrkBw3ypQhTFgouVfFUqv10qCqeSrWfDlXFU6n2003g5adSt5OAvPxU6nYSkJefSt1OwhRF7VOpfA8qap9K5XtQUftUKt8zQes0ttodqVRdPXSokalUXT10qJGpVF29GVqlMTKViuZCg0emUtFcaPDIVCqaa75efYEyRZYOIuQ4YaWQJphcAEnGcpELIMlYLnIBJBnLDdycqdG3A9JA32WRBvoua4LWadF3jg4g9fRtQOrp22CCPJLc3FZAeSQ5HsojyfFmqCDJ3lAFSfaGKkiyt/m0cBdgoxpZQYXc89W/t+CR8mENkvJhDZLyYU3g4m3JQuJtyULibckyQVZbokhWW6JIVluiJhjtUwGN9qmARvtUmKHYpwIq9qmAin0qFBD2IiVqdAhclzLfpFnItYVhQiinaH1kuzmlxmB/JCd3P8A77tkylaLMZdtc0Oi589yYu+xP2X4utGhpYMcZzZaIBYb8yK/VIfpayCA1cqFkxelEW6aySq4bcG/Z9E7Dmi8VAFIY38MRen/IcDUa2/aaZ1pHNL11Wp5r6rHVA/eZ9Bcf+FKcoBWRWjWymdN76z0wfayraGHRFrtpgH8oPHt3DpBeFOBgJdx6V/WSQaP9wWtdywHaPzJEjaD4Zk4naYz8hD0cH2EIMltzluW6pQNrjVE45PisizQRsTDXLYznGBKOOD4nWwmwVRpW5rqF0Q0aY+A3OT76yyA9rc116ze7ZVDlrpwfYQRyplbnuhXI/rXzI+RDONjq6omu5QC1WxTpaXVb7jZktws4QHo3SJ7Fje2CCNu1E3THCEusLUpUqOMITRM+IbO3YGmlZciJj3SE9CGRjGwrSxH999oZOhzCSRZWn0T6/miHqNd/RkZ71vW+ia6vHSJ9NIQNlpUgOk5I5hjtqi8y1LOoxgGQMEc7RvrvIhxiUR2Jdn7YDpKQAWq2hGdJ1YSFkdpB0s8bYdyKrqiJCDT+ZB0loQC0WqkFzSAsVNeOkn6jCEdZzxjCwi7tMJ0dFFvPanaQKzFo7XfsNOmXgbCgylqWLSN8I9pxeoN7Rhi1lNJmSxD+Zb1CmTdj7M0YezMWVGaszFiZcvoRQbFMCymcSDjtvemgsbRPTiGytE9OIXKCPjmFgcvyyWhzAZLlk5GLZPlk5JqgtNjnAyGlxT4fCCkt9qk2wfX6HAC6Xp8DQO/bZ5QZZviMgmb4dIRm+HRUSoh6MQibL1VoGd5w4kINHTzckkQiPdeFSxKJ9FwXLkkk0nPdwLkdEokJg124QyIxYbALd0gkJgx2TeDWpycSd+TC9emJRAcXrk9PJDq4JqiqTiSqPaiqOpGo9qCq6kRih7nmmaGqOpGY7kFV1YnEdA+qqk4kpntK6c8L8QBW4fUm/gl1MFHRbyr6T0W/Kek3JRUYIbyBeJbW4PUm/mJ6OFIjT/gMif/xGivov7mtIH6GK2oHahmhzxOh4dc8Nvg13jnxzl9fO09f/wcdhH68Xy/o7WJjm0aDn1aHDg3B6bhU2/hmWNCPPtrnol/bu0F/vRwaXEkHgxrFUki1YmOgqGJvBnnWquUgFaqtZo7DP/sXs2f6NdmiJTfoD0nS4CnroDBEsZWRgYpdLzRDsXtCYmPVGkw02ajWoRi4bse9wkemvwdkusG+6gA0ehrlwaFCrRKiTcWqlNpFEoq1SkMpbyjCe1Lr+ULsqVYqQN2OWxgqHO1L/x+g0Q32NedJo6dRroMDoyplV0B8wSp5d078TKtUuh3CGTUq9UtiXWpUmh7z34ULWW7vlfcZx0COLnKDfqckjZ5GuQ4WTBUq06GCBmddZqwyrdO6cxo901ZpKNM4ews0WPZJ1WmZSgYNrjZBnYYM+qPHF7zjKxdW3lZfBviP1/V3g/3Cd07DK5Tr4MHaA9xTXMXo8BgNFw+7p7iKA3snaTw2Y2BcxXuadZliGj/PrXRbXMULaD+Zfqx4x3EVe6aaL0WDP2/dtZ7E+sJ+4VElTRi737lvyA32VXVJGhb6arN2O+7lhQX77/MKuhoVnhtxKGP3u7Ab9D/pABrue37anCNegrC7L53aLqlduEF/vW9G4xcjFNGm/PR7SqNjO7FFS9lu0M983/TjbQlJtBl/1gnfBJ3a1c6pxg3+q4ynP4VVd6fNKCR9T3Roc2Zvodpzg35Vw0T6s/PtaVMudxN0ZAtuZ7rnBv8Oz7eWfn2cb1Cbcq1KOq85U4cMdi2wzQWdKujfyhVGalMKzeiwxiaPajiUa4U1A/Ni9PPrXFCb844rHZRkxbAL6JftWmHrtM5yVBMR+r3zHxipzfkFp9ARHXBco8YkWqXhuVaYW93zdAYwkMKGhbRJp/Wh8YwyxzCn2RITx8+6zPPt1DKV6YeqcoNpo9/GlnzSni94eA4DLJw/nDbtldPgxJ4l/V2He+4bisVqJ3+z3gfomGofjfaMRutSqY5Tu59nE5EkzfgKhJrl2rQrCt+wiW/GdcDrqO7xr3Xh2sTzER7kuQ64N0CZ97RmL23mT38QKN91xNOpZl9h5bza5IsQrXOd8d5KdD3SLWjTvxgkz3PG2lwQM9/lrnF25dr8l0J0PdcZH0iTC0+F2eteuFbyTSJ37jrkTcXMNE44duWvslyrep1IvkNWTbNOEfZe4WvtplUWtiCt0nDIfr4Zrvio/36Pb/BnadUfJ5D0nLHcWAC+9TrCufc13428tUNftQ6O7wrIcZ3xTkTvc907vuNH983P747v+HDzCvl/0Y8eqYNsGvCaHbKhyF3q4I7kOGPTib4tyyhzxmZaB3JBdxfkvprDVh9D9q6DfFeg2BGLEhXSBrtVATph3gDkUelg38dZ217OEN2jlRQ6YN2Ry+0R9IQjyFjnqwPRU9ZB/xkjc9+Q89UR2fPdBr/VkWUdr7EZyFF18BcWITWOV0+iQkULeERIP8er2RLIV2tnAdeJFDld6USX1xa4ODJnak7XPpHOf9gKFkHyHa47Irq+tsL7RMY4XPcLCekt4Zkjg5yt3CQiHNCWKBRAOjpbdUSFytbwi5Cpjlb/WkR40M4ahPjIcTlaz4DoStoaD4oUOFrNl0LSzsUi9LcGcpys7eUc0RW0Vf5nIOZk5SG7PXXLOC+AV+RcZRG9em2Z948s7FwNh16EdbxypNqxKiE6v7ZOYTgyxLE6HWhdC1kKuSenqnVaMaRPuYU8c+TinarZWyAq1NYW+iKQqQ7V4CSy6s+ykktB8hyqjkSF1tpKy3cL5DhTbS5IIpd7UEvR6wCscqRSRJfX1vqokFZpOFG5GzQGWXSExQiLkWonKkV0cW2xiyMtWnKgcjOQtKu2mvtEBjlQKaI12morkJ/vPM19Q0lkyqe3nFNHNr5ZzlNHoqesLbfXtQIZjlPrtGLIlFuwHr0kwDYXOE2zLkP0lLUFL4b0c5gWjiEX9Omt6MKQfIdpKtHFtRV/cyTlLGUSTbtqS7pmZLizdOfQlWtLXgBpIuIopRM98RHWpJ8IwEYHydvYpkE3oi1a2IP8FAdpCNGvNtKq3j6S7xwV5kD3qa1aCEA6OkcDiX6uXpZ1b8gmt8Axqs+A/om27LvbM5DhOUWjiD4qbeE/CeCyDlEm4X9oZcJK5AQdojxIWKOtXOiGPF9n6CyJrr2QpV0OcueOUHYOdMra0pdBMjwnaBDR33Oy1qZXBbjzPHKADpWEnrq2+M+MDHGAhhO9rXZWtwgyewvOzwkSfq3a6v8hUuD4ZOdAi2nLn3atAK/I6TknogcRElqf/qFIusNTEoOuXNvAt488X4cnj+hHnmYH1kTO1NnJJ7yutoOXgiT7OzmDi6GXoe3h6wQ43UYZhAFz4hprmjo7Jgab+gYrqjoTNFXKhBlEOy9kEx4RMsgm6YcAGzo6nwWuyBtEsn9fCr5Pw0RvXKhhzF20zbSgKiVBy1QIH0nbxAdH8myRYTTkNsIW65wh7il4vjAT2HgpA3Jroc914XZhRSR2zPeGDXLiYop3x5CAYacw81Ia+E0luucFtW18BQAn2B5jJCjkEEbCJvvzuQmzQe+TEt67to+fEDknu2NeUhPnkiHBA7chBhEA6K4oBxKenqyNeGvIUJtjSUGT4IkjJYYew36F3CzrI/zMtY286kqArdKwNWZFVfeRUoN2IwYEALidIOHFtK38oUjczhhCQVG3KVKypyQH2NpcUAb9qkuxF8JgZLid8V3qIq7Jeb4Ai1dWs9aK9+gowr6hKMcmo+Fj/uYuuCXn+qxp6KC2T8IPru3l2SHJQvtiWUkzK4fkXM5J7acsJeJQvRpCEGwT4EYTnQazOOHVtc1s96sAptuXMJMYsaNeW/LULkCNC7aoIr7OvSwgmytPktCvuhS7oU8Rma0522JNXUfs8Me6TIWjkGkj7xmvGEfUXQDzNrE5hD+mtp03g9R6diVAvYcV+8mThVgMsh3XfOJFtgwMAHvHhB+ztp9XPQ5glk3ZPdE7xyrWtQ05momf4XcqvHaQK4RP983ZEP0pkYu3KeMRM9DyDXLNWiohKYfjFfeGAVduDiZU1nZU6Iw0FbMpnpIdrGJcWjihrcIXvGhxYHnHRfiitS0VEiDMtCdBOxFG4h9KL07GTQ0pclr/RYNBvI8esOxbGYC1te4hfPx3Z0/0c0Ha25PIawTjb+Sbr2GJ67ZfYQ40o7rt/Je3XlFaBEWpDLfhNlhNj0G7PbS2qcsjA+xJrDOGcQovZvRbG8NLmgNUuTmEl9d2dd8Id5xbtiTONcNwWPVBqFEZPotckPKGE/6dvWyL/lxIR1syJ8Nlyw+holxZGBtAqo7wxayo7avQF6n17EjkdYLhb/5CIF0oUZI/huEuygaodOJfUttYISnCdDsSrBdhJPgkdKMlwuSqnkNMB7YmOLVOqww7JW1rzwuZaR12xGumg0GFWNUIMzRrQDAVnifhH3rh9uaEkVipDbFtZGB5G9kTRA9GcjMj/j2jHwLANJXwiR9d29tbqAQYtyGGMVCSb45BowlhOn6GmIFbERnKA4l/b213nzFSYUPkwO0IK+KpIT1KEL8cFdPeY9m1MEApnfgpa9t7MwhLbMh4LPIzc6YPL+OTmUhU5EsLMeNcMacBqUMX7I22sz8jhQ/IKBsiR1whWBRk7S5z0RhuuWvmRbuxEdt1iE2Gce5rJvyubkHb4DWQjGwbUjoHivuGmIyeqpyVAT1kiNaIHfOEMoQEYFS1MuG1703bYSEbwkk2RA7Y6OFAFPvZ46j6U9FOLdnIJKVLCcqQGZajUkaJXl1uOv4k+qaIq21jgwzjYcTvU9vj20IK7IgRHFQ9F2F7lmFcR/xpa5v8cRG+GRsiW5TVnKmcxQwCAEZzdID47/xZdulkXwoy1Y7IpSf+4pQRaZU4UQZxdQzr+um1bX5ESGwXdkS2qqaL/8gJF3ocM4KBZBDXFBP+1q9S2+dfhPDibYlsmq2KsEAI1PcFBmBABnF9DuHK5bSd/mVIl2O+t2yJfFrqxB+cEFG3KWuaOhnGpc2XIi501Lb6YyLsZE9k2TgF8pbtSPjC8Ym6Qzl2Md0lwzh7IvE1tL0WQgjPkQGeTZHlBxw5mAI1e+LeMIxZ2/ee5xpDhnLVPokL24WgNksfCWGLlmyLeuNkyLqWrhanHpYR7VkY7t9dhrPXm3ifc9F2e5kpyFDPzgB8GPErPnVtv4VJCFum4iR0JH4Th9Y2fKFxSIGDcE7E+wrFtC0XViOcM6ccg0HE9yzU0Pb83qACzyEYRINCB23XbxDhWToDg2hwT9q2Lwg1FfOcgEE0uHdt428Q4SQHYBANCouEwHZuQSinMOyXosHF2mlb/zsRRsN8XkcafBk9tL0X8kMZbS4I63nDaFDYP03bfWELwmHW0zqtut4z6g4VHqjqTYPzC2G07X+De0aYaTGlLzhGkrFO4YDG7jQ4fzcdAr4QaJNbYClVPYs5jy1aCv1KJ9Lg/N10KHh04QfCBgvZXs41X4pgbWGoVz+UBufvpkNDYRxUe0VWscNcyyO+g1wK8UpyaPCLdtMh4jInjnCUNazXnUZvM7QryqDBl9FDh4yfF2I/C6hzSuSfL7QGuhYtxWhQWNlDh47thAtQgRfslrkGhawMcu+YRtdvp0PJPw4xGtQO/mpYFHQUGe79r5dGr7Nch5a7gWI1wavNlppGYXf7BW5tLphIo39Ah5orTkF4nlVBqs6s4JpbUFg1ICnaYMQEE5DBntlEhAYrv4IOPX8axLpgtP4+36DQuYpXhVzTUbVga5lKkgaF719Sh6DthNNQrCTYVG03Z8ZdBIXOhJjirv6AiKgHmHntaTTtj+uQ9BftFuHQ7GDiVY8qpuDpYaKsx31KzuVIfaI3zhRLBbErGk6jXYXUOkS9MIizLhM0qj7QbM2V0f9po0LMBrzYipihxzH9EACvkqZiNPqeLkWHqiM/MsRvGxTqW7R0vV0YQH3IIMNOSwneCeLqMsACriFJGn0Z3XToes2VUJdDqZb9gd7xRAZ0O5PeTxJ+EcQ9yRc3IKz6H4CGn7YQVIeywnCIE6sUOqZ7rajum8UY2MfMB7/ainhPtDuk5sqTAhrt+9R1aHvhfSDerxrZP+UZ3G/zpRjwrGg5DrJ+JeNwJKSfCg+gzjKDRn+VUEiHum9wbYin84HmyrNCMxXuPI9eTnTqaJpQDYjykKrz0X9FQjuwM0GpcBQNC9eFpDr0vRHMt7Zg+P2+49t8OassnOv5y8vtUD2k7n67NxWjSdPFROi3nYt0YiPhE75ypoVUMMocSsMP/1x0CFx+VENwcbMl8sbPvJ4DpOqivnWpi7/fmdYxfOXJtTT1IjmLVDgr3hiElLrZ7gDyxsRoWOhXrkPiT/+sA6D1MyWmGHd/EuXcRkpvCj5z39Bx0fAFLadD5Sc/Lkili4ko2mAk0AxAmrJ36DQU0/BtCcl16Lx8MEofG1OUwYiP3qvkPB9p0mQcn009HWhye9O4sPCgOoQuf97BJjNyWkmWM35G7kgzx3/kzAirALN0LQ0LP9+WDq2FSMKtIKIXGZCbRI2VqA9RLmyk2Scyioegknu9NC7ceZU61N53WnDQjZDlJFxm1GXF99DdIKQVPx0eJg1lNP53hXA69H5/lco9lpd0g2mfF76HbpJyONKyARo8ENnFcBqfcp86JBe6qZQBNi53iRr9tgtOi7eiXzlIi3tOcYDD20YPZdC4cF5IqUN0YaEKt2RMSMpVrKY4kwkrkZ+891wk+CBIFJ15WYDxUwpovPKUL1yH6hd+gwZim3qclT4uSg9SJlhayJAM8QnZ0PNyl6grTLPPiMuKnZQf3rouol46SiURfdqepQESx3Svzd4C/bjOEjqEH/FcMDZ/nBJy2kELxn1FIl+Ygiw/eO0+cV6x4bTkn8OcfzYSP1mJ/GA54oNZ/1fvvPOO3dRfDrP+uSrf8dpx5n/yIeyu4dpBSJyv2D5k8J7BRkwQ+PEUr1qH9LfwnzGmgw8KPGQiaU30zu0rRFilgn4UXgqVdKj/9IU3GOrDKHw0Q9JCX/E43r8IBQbPsj768zF/eh36P7KLwfA7V4Un0nKEf/XsbV923QaNoR8v99PqsOC7uwkM0Urol1kl5Qj/6tnbvCEbNYX+FBb9YR0mfHc3YQBLsppJ/MlJyhH+1a3bufQC+nMdoaQOH17OQQxgnopVMc8JSaEzp1LZVrlz+nPcdY7Q4UShwE0YwIxpUSGmLZJCV9gyNKhmHXrTr8KpV6nDjC/idA2gLpTIRe6RpFAXjhxNKtjCpxOjP9OE1r102PENPmsDiCVbzyR8YaSE+k6tarVK43Ri9Oshb0GHI4Vkr8AIZiOSEXreISVEW+iHAFVq4VmXidGv3/jd6TDlpXxjI7irg5SN5ByflFDQLuRXlanm52/ACPr1ct9WLx227LaYEcQC1Fui7GFSQuHniW1Vo1XG07/Cjws7WR3ObCeMM4T6sApnOQepJIRiXzD3q0Dby5kzpZ938950uHOpBvkg5q1SE2HdIyGU5ItbTcWpym+2BP38ahfUYdDd6uCFulESa+HfEr4y0kHkNcOhHwJUmPqtdkct/bzkcjo8qgDCNCQvxExZCV7qH/qWDgoxgBgjQqpKv5nXE6Ofu95nLx0uVQChOZQfYn5qDSGmbdJB/a2pihQ2TKS/hRc/rYcOp5ajww+xJOupKHuIZNDTqdOoGnPlyTmV0d9nuNJBdZj1OgUQHgFQDSky5rYW7QiTCqKQQ9h5qkRVy9TunH4/caHHQXX4VQGEfFSD/BD1oCRmfF5FPcCkgm6zqadTGTI7FtPvZyh0HaHDs5cqgPAJgHi9IaeliJsei6C+fZW4dlcFcjsV0P//+fNO02HbaZewWz+QLMZkKMiISRqIYhxRa0pdYctUhsfof+Hag/8sHdZ9ZP/CL4i5yZV5qLppQRIolbcsx/AS5hWdTgYDuH+hrBBYB/ZchKpHetpCP6H2AuEM3U7ofEF+QUyfHGY1/EvUfUwKiKLtUhtLlFc9ewsbMYEB3O3f/T86wG/uz14rfccdUogbxtD6Nf5d/yBiwVodnqvv/pYAIn81HmMkSHq86lGrMZC/6t+vqAN9b2fIJyIMXuLwQv4rX4eLCoXDGVoLeV+MnxDTxgeZdH8RYsrWt/hRzU7dTWkkJXu7OXOAMgb0ywgBB9UB3/dN8KxGaN+DCrN5ECFrWEOX38yqfkLEbEWz7CdvRNxARI9oOIuyGsmozx+fZEB3K6x88tqE5a+Wl1F+dosIA/d05c//Z+nzoHCpV1hD6x5LnaG/EDEnySJ7CVvtix2l8lftMUFTSYDXb9DGN4sBXvVIl6JN+b055dPr1XmQJ7JnCju0ECmNa4Y5tD7ojZyh3xCxdbsJGz2KG9GGHuJtu4tbmwsaZl5XGQPc9y0JJXppkyZ4GlqvzjvW7478zvrP8i2FPbQ+6EpX7D9EzEoozbzvhwC9ukQfnJgR9efE1XSXWDVuL+fOaTIDvuQH25U275K8mba9t8opJ6vfGoXbYRCte3xz4XIAEFEvWlG04ZDrwrMoe5iIEf3nwNaURnwaP9CgvBgD/qvmE7JpU5845/VZ8oE7r3o5Wi/ItLCI1loo9r4CoT5rkQxTni+81j/EOCVEiyjKFlWLfggQkyua0H5ijIG/VmHTmtO0yX8ShfI+wtF33necUFXrgXzW4RKt9/3zllKK+vLMeL/y0QTFuiBEimglB7amNOLQoUVLszU3mWbc8/xvawFt/qPy1/nMq4XGfAVaCz04f/hE6+MUQDgVQHiVpD4r4bQyXeWfnZ/kixMjougHlAs/ywOK1SfqhhfTnOf13x+2VlJozf/8s9qyTCWPXt6HHyycoq2t/eNGCiD8ylJfV/6qLZaDv3hvAm5IJTpE8e+ZQ1yaKvXbz4Wtdc+MHJp0zw98I0fXqp7L5fKD6atPe/JaC1vS7nMtpv3hMIu2tgII45f3Kk/DtHABBaq3mff74KH85vwzxYWO0O4h/P3j2Zutf0lDqvtGTKJpKz/l633YWuWXwHE/Urf9n3Tm69Xh2L+6a04zaJy9RI4B+wV7iRu3hltx/S0eRzjCER7S///+1+cwyTHfG5kNz3fGgBhNfEGP+UcuoFW/BFJYe829tH6V6++Zn1CHa7/gFb5Ok7R95pc5c/3Ycxw/rx3nrzce4r/vvv83Egei5SqyKKtRTmnmnKlFZ13mTGtp8lXneznTdDD8kWdIdl5nCnkxS+lw7i+6wudinnnMnJVSiFaXCbdn9pO2vNQ9BJ+0RDvEztRqRPTQ12/wq2qdVr8T3EYPveAZBRk0f+cbXOkLHsPDi0BBs9tTv3/hTtqq71xoL0TS4d4VlzrqtZqK3X9uMhWldWwn7p+bkgs/nZpzIu8gcW+ppH8+rULUd7gZzGWAxRgJkl0vd648mX6C8UGzNTejopaqPuXr/N4H1Q7lCKHqIb+a+TinRwzJUTKvQM22Ei2nTHq+sBzypSnnOUcL+WiGAvYbQs44Imx4Pop1QcV7YP5OxvEp5cz4j8wXPYVbdoWcth3mq03lqerGRe6R3fgNS0GfjLk+KcFiKj/VprThqC5UXHiw/s28Oe1w/sXf9PDTlBE0XWJQhpSYrEVTshcrWHbZPOSr8lVp4Lid731bf+s46BZfl2z2edrvbPo0gcFVuL3+S3hv2hkVgr67J7F/4VuwEP9xwvn53qQQSzurP+veftpbOkO7I7xaXegx791ph/Zuz+80hDPXak8W/aun/GkX0k7vhR/6bT2ib3ytduKrffcLuxkhebl2jC/80N98hef91Szvgn6oMOvjCgWuWjvSJ7ugEPC0/+o6e7agyv/8voQJn/c2frR2vKft+ystsvcb/M8vSkJan9Wf9k8TKhy+h3bW72jvmU3Oe3C95h4So5fyOue/emHUSm9NyHzV2uFXAKFb+MPG6j1qcgUQ7umr3uVArdTgE1lSOPCWTmNPr3ePl/MFR+hIxEXXGmGBzv5XAGF797dXFUC4Trq9oZ0/faGrGXR0dHRa49I5LS1t0a7/uc833vnc2+f59tDNu1MAYd6ks2fuXLpx7TA6" parent="1" vertex="1">
          <mxGeometry x="310" y="261.47" width="181" height="129.8" as="geometry" />
        </mxCell>
        <mxCell id="ogEo_6NqqmNYCkTCZS1q-21" value="" style="shape=image;verticalLabelPosition=bottom;verticalAlign=top;imageAspect=0;aspect=fixed;image=data:image/png,iVBORw0KGgoAAAANSUhEUgAAAMAAAACZCAMAAABOg8UKAAACo1BMVEVHcEzS4P9rq/+Kw/+Yx/9/tv+Bu/9Xrf9Qof9Ypv+W0f/T6v++//9ipf8Adv8Ad/8Adv91tf/L4v8Af/8Oef8He/8Ief8Aev99uP8Eef8Ae/8BfP8Bef8Aff8EfP8Ee/8Bef+Huf9LpP9Knf+Sx//T6/+n1/+z1/+u0v+21v+z1/9+tP/b8//Q6f/H4//v+P/k9v/n9f9Yff++3P+o2/+c0/+05P+93P+32P+b2f+myv+mz/+u0f+Ww/8Dhv9EoP+Qw/8ch/8AcP95uv91r//H4v+Swf8Adf8Adf8+m/+Zyf+Fuf8ujP8Ab/8Abv9ts//J4v8Adf8Ad/8MfP9sqf+iy//Q6f/H4P9prv+m1f+w1f/A3/+Ew/9gq/8li/+pzf9zu/+dxf+Mvf8RiP8SfP80lP+kz//E4/8Acv+Kxv9+vv+s0/+PwP8ci/+XyP+Ivf8mj/8Mgf9tqP/K4v+Fvv+jyv+qz//1/P+11//0/f+Ovf88lP90rv+fxv+hzP/X8P+72/+w1f9Fl/+cyv+p0v/e7v8Abf+ZyP9Unv+t2v/F3/9hpP+Sx/+Rv/9zq/9op/+Jwv/D3//j8v8Acv9OmP9+s//6/v/z+f8aff8Aaf8ih/+Lrf+Zyf/7/f+Ctf9Qnf++3P+Ly/+oz/+k0//q9v+32v+60f+byP+PwP+33v+Bwf+W0P+Syf+j0P+73f/W6/+ezP9YoP+hz/8Agv8zkP+Zx/+72/91sf9lrf+Rz/94t/+Vxv+Lxv97t/9vr/87kv8Ygf+OxP9Jm/9PmP8AdP9Pn/95uf9gr/9+uP8FfP99u/+NxP8Be/9Zpv+LxP9oqP+Mvv9/uf9cn/8Qe/94pP8Mf/8AJf88kP99u/9fpP8fkP9kpP9Jmf8wkf+Qx/8gi/9Imv8wU0jUAAAA4XRSTlMABAUBXGL+/////1AC5f/69/+2//////r//v////v///32///+OFDbzs1nAwdtZgokKwKx////ncD/5Mrv6v//7v/1//GB3f38/8Hm//77/7z//P/p0kPU//9yS/////j/+cf///+nMvr//4zm/83s///9pf/g6haqD9X/1AbDHVi7/+qZgvj////G/pv2/v37/ZH///5M1v78//rbuMz/kP+xhDmAGoj/KwgRIRZAXfH///r/tvGy///2fTqMnq23bJvy2oj7I8Hf/FTeKSrCqHjx+lNALfv3rX7U0s5LnKa0nLvjAAASK0lEQVR4AeychXfiWB+G35CVShbaQsIWAmFcUmU67ko6W2ghY9U1+KiM1GVnGZ+prbuPu09lff+2D5IQhnMYTyicw1N9z0XuQ+69v4siR44cOXLkyPEMCMNjINshkX289nqC15CFvPFmXr5MXn5BIShkG28ZTXGKiktAZJ+A2ULLMNa3s1Og1CZhZx3ZLWBjrTmBVyEn4MzWOWBnOImsXYXsLuUQsI4MrQMk8RixaFATBcybvyBPZkHewkWgMn2DRiZHAouXLF0ms3TJcvCZ2P+y8ooEQGUillclx2qQyDjcWFGzMk7BqtVYs6ogHteuq8T6GrWxZkNZBhqQ2LjJGqdo83ps2VoUj9u2r8YOu9rqeHsnCKSGAoi5Eti11cMYJRihdjfeqfMq0eKrb8BbNiUZ/abihif1kgdFgJ8zAZfTLsEFNscEjEoUhWiP95hpOT2tkPEgluzdB5KaKwGbDCsLeJxylAWeZytBYv+BTY1NAJERAv4XFSDQ3OLwmFuXVIPIRgEe+xrbjIzRkf+ubJBtAmVoeq+IsXOMdcH7ADH3k9ivxLjAMyYxCeKDD10x6aA39L8w+PQLCC6FdmkZFUrlZGmPCdgCLhmPKfVmjkJDh1W0xQiaOrtgSLfAwUN2s4zdNv8wjnSzSuzxby9Br1ltNXf2pRZYku9ibRJ0UX8TeP23n3wCAs0bBtbFGQxjcSIOrh5C02A8DQwOj4DgE1CQcOOjo3EBmys0QJLpfXyQRxLup544VaMbHx9SBSztHRWI6Lx7q162+5jC7vWFCK8/prLmOE4s3Z2IJFaoIRorK08m0t5mUAAIFL7BMjYFrrR73RAoUkIvgf0toQUKp6JL9943F6jxvWM43XoqHms7CjFvs9qa148zLbVqrH2/EiQQwdmF5yy2OEHfaBXiRCXcJEWQGgssGfMFBImAUDRe/sHWdkFBWoW2tsdbz9VP4C1WPa1tEp/M3ybEo/dTSYDAzn6fqAqI3s/CxIgMpU46SluBfK9IczFooyMqUOdSEq3UAZGTCArFJdE6oN6p7/kcn7xpYpQTW/wpBZzG0BfvynzZ8NVXX509W1gNQHMB5dpkgeeqxHZWFuCUmEJAxrxpk9n4NWszfzM2+dln3/bO29939jvppHMrYEslIM+BDmkOqHCMJRjF4vcIPq9XcDm/+fj770BkqgCB8n6PmCTAcTZ79E9QlERcP/w4Wg4K6RPwpBYwphYAGasDtifC/vTjz18BpK4CnNwnW9IRSGzmkueAElUBHr/UyoUsJdH+/0qAgrYCQUZCZBw1MQFGQZCPgCinoCxgiZ9WFrDQUqRVAQonD8g3QSp+8P72axU0XkbPn2tX8MXqQE97nG2hw3inR209dyBaB75WU0CqA+qJf5QF+DKERx30Ewx+8H3265BGE5iklN3bhZoD7ynUX1yCpS3vqawdxoaOejU2hjGaaOxsRNfa+kQeLHMTfARRLtUGUgsEA0e/1P5eGnHhskrXFVR2JeJVoPCxuBMoV4MUrz521muIcWXn8us3DjlTCohC92hYq/5TZc37GyQu3Lx1TeH2tfIVFbevqdzZWVJxR229G+4ruXc3nm5du7cielY18/cnJiaWHXtQ09K6yZly/bEE2vo1638Elzq/eSgxNnZ+TCWakog2J1rlUyucH0sENZ9f0OawWukU3efEYPum0bBWe2sK1ae7fYKEx/gYHk9yFJ4S/cmn9QsxjCzLJY0fZxSaLjV6HPWPNOs/CFSMTzEirTmcM3n4sDEzn4/dNN268OQVRKCZwP3GKYaz6Y44NTW19fzkwx2jJ/cBBDQUeJQOgZ7ai4014ycb9vEjJAwUskyAY396VH6iohASBiDbBMSi7VcRxU24QUImm+aA0zO98TjKDARkNBYYnzLqLCB+PXkHBHRArgMhj74CnLH70Qj0woCZ/HbapidMaXEFKP0E1hzwiTYdYa3zZ8BDL3iU93r1FHDS1oI+EHo+of3Z13oKiKbaS9AREiPzzBYdD4C/Z3wRDLoKjIdYTr8Z7CguBwEdcWNnp8DY9RpAQuss9IV04/e2gF4lwNX9fjUo6EoEM3kmncaQ6OhoBgF9IXBhu4vVYwzZLe2da9Lw1BhG3t9qdOqygv6xDCChP8sWuBib5gSF1vUAD90hcO/PKUaH23/BYYBAGqAw/NBHaz7+NzdWwYD0CFT9Zde4GltMeR/cB4/04MaSekHUdvzkHwZ4pE1g6Jdul3a1gLMUtR4GypA2yrCzZorWykAMGFvk9Sd98Fj9h9WiSTVzWoTpHWcqwSO9AsdXhTQpBixjDb0RBkkhnciPr3S7Xn0iWwLSY7e3kHZ43B8PucRXG0W0Rah91FWFCOaASNSgW2CcL126nLTxa3PxQDlAAHNk0LjAxbAvO/hLrT3fdEwABh5zBIFF6+unXC/1SCPjck3lrWyqLEMEcwcBDBeEBIv4YgocHQy2H2ptPNkMgALm1qB5b7HZZ6Rp53MOfCfNGD1e8/aPll0BCJLE3EKRwPIbD7daY89w2Z/ReTvHsWzAZK17WDy6Wp5FGQAPDJ0ZLW5zuNjSp84GjillXQ7H0QMdR9Y0VwEGN4mMgOSBwq7Ghflb7e2m4A9BUaRpLgFNi2Iw+INoMrXbD9XWNw78vboKAEkic6B4oPrm8sGDnZvtP/q8X3/t9xvj+P1ff+31/fijufaPPzcOLvtn0RAA3k2RyCiICKKMnPn34OgbBx4uOBoKTdfV1U1PT4eOnjr/8I+3bzza9d8nq4cQoyxCIQOheGlIV+0L980Ont5yRGHLxtODsyXhffuOI4qbjJ4MmQsZMcgrUzIEYhgMERKZD0XwKbrJ8wSFHDly5MiRI0eOHOmGNBj45/8ULRKZBin/0vik/6fljJ+aONM4/t1dmhkxTWK3N8lsds54qL1hU5Gt1uasGRukRRS9gHKepjg1Ikk8PXS4UgwxNlLUg2JvgA7HOCCUVkkthV44GxAt0gYvVgBiS6xS70+5fTdZOKpRZKbvb88332yeT5533/d5WeCXD84hPs0kLjr/L258MwxhQdaL39ysfHYCBsh6aoIiEDQvprwCDpQ2Xl4KaiGJjFi3Dj37QzoRn4Tzs54MzoB6v2K/fxF1oNHWavt6NYSFAHzLl3wH+tlrnB6xpD35fRT2vbrMMboIAAG3Wmv3LBDgP1z5YgA+/ygavp36E5S/VY84rvzaAN8vHiAN1JMrULzuGQEYtSgN9TwARpTH43zMLwEYxae8TT0XMYBaudSvBeBDYgTnAGarQIuP+iDOBxCINN8izK21Aq1ocwBBH03TvtnP8MlASmBOAlCSg/bRC/lZYVX36J07o91AmwLgQ6WkjY75AUrx+UDJvmxAUAASetXYKMhQi6gckyxja4kDjPTCGIC1Y4lLCQrAbLIKZoJfCZIACrf6qStzZpvBW+oNGK6vvVoiA6gZXNu8J1DqbT/+3RdyLiBUt8d3Et/lCUBUAIgerG7PGIZIEhze9bVk6TvzHHmBxuDbGUOVQ8193pC3rvkOaOUm7hmcnJz8pCv5sHJ48BSULNUkIACjWDo4eWlwci+I64k749Ayu8uk1RbuKJ+aatkhAQRh7m81ugq12ryC8qmLYBiAQtmJEOvSEh/7fBqSAAyNrMMjrI6bgiCieHyrPU+y5DWy1d2kilv++VbfrkAB0bSNZ69AkABUnpfyK9I7OjosZ04BgoDDFsvR5JyjsMFiyce+dRFPT82Z9HBHRzh8QXKlJmCAm6WuGKexWnlexxuLXBIA1NUhjU7DO618oY5fUg8aFLqbj0iB0WnlinRs3xeJZTQIrL58pCim8Q7BhzXLjDotzzo5jdbknLoC+A0FLSajzcRZnayxYOe1BIDK7Y5EPQbVQCS8ETCj0+25NQvwmjvnKHrWRVQr3ZEBg8ETHXC7X/GnJhAxFNIWOkdev5v2ZhOnX36QVAAHjmi13obdP9zd1Neqd32diyCq3uH0mkDDxI9320IlteyoVAFpI0Nl/zSvtxnrLoECdnExo7d58sdOVcZbem6qG/7mgoO/1bcGtt398bktZ+vBkCnkUalU4c2n392U7oh3bDTTONThmAN43+25kEUAPFH3+t53T69Mj8Qte+FLufeu3ukqPLu7kgT7vuJfLCIAmU2FeaH8j4n2cvUxPf98FTBYquVDh7KJdu1ec1uQVOAnpN3fatcXvH0gCBHUVS7Gj2zIAtD1Sh+nd74pA+jZB2Qag6KgAFRsq6kChdw33XHLRTwKYJYAKqKOkx9UMuh6Yb0nWrE6RQkYZFU3xqy7GTCCKODjywUtZArdc+q85EYlmr/ZqNs6Sb5dbcZzkiY/aFkqAX9fZDzR/7ZGaw9NpVWRqXxlpyvv+AdIjNUBjb2v+HNpCrEz5Eq0KKcvA0Td74GRRGRtduT0lqHzcQAq90sUQHy5K+MduyGkak3qNJo6P4gXQeQuc7l2XlvVvMPe0AUz0cz4dHtRwTvmfdO8ZltV4jKiDxDwPWvybne1cCP5xSQUkeaM8b1LVyfGqqtOW98lylCgDXQiOG8nVuWcSzRqQVx0D6w79XgAw5mlMDOAEMRr4YH1a0Cl2Nm3HyzYn5WI1PDvMtbu6bn2O9v2k3Oz7jzf2Iz6DJt3cjYTSmQkgOUm/YsHNVuAoPx9vsv+hmvakxw7243a8p/MhgKuaRWY+a2EuwZMMnBHwz8/FmDAvTGZgYCulZH04cd3LRReCOisPygv+jBeIgH8UKoL/X12L618p1FzHkNeW8YlxUd0UgFe4yw8yI6DeEWcYE3L7bXKcJl0VgJgnHq0F/oZdCLwfxVJARBx/wlq5T29hnAKADVOeU2aTqU6NMZba1XFEsB2BQCgVtg1x2WASfjmAzi3TfS59KED5EIi/saaOK51drzBLpkkFZjKekwzJ/w/ALmJlaYkAVD86sAcAJjUAAzo6aLGy0yipGZ8WVFrvYG0ZbaSWwgmEcuml+84g5o+m/O6UhWRIVOIO3ITOJQhLbj9ZklDJ1vErzjQdoCMNjI64W+WAMypulEF4P1wzqZsqBMp9HdIy2j2/oh7oxQkXNkfppxCDD5r2MGHMhGkADODS15b+T347/P89jFZo2jkh3TOCRQ3cS5Dt0xFybRKKzFRqrUtSUNQxGhAa9yGeWNhAKcccYuUgjyHs08bPBf8qA9HPlwlE6iz8Er6wLpUv6NPY9Kr01x+OdEz/nHaXtieC0x4dWxDmaSJwLDXlBe6BtziWoz3zaDJErRh/94kQBC4Wqqzt25AEP4GPma9DgTpILLSXu+Bb4EA+IsnpzcbQVFSD1viDgng03Dc8Y8u+NSSlOmOOC6ketAsYO0WY8x+vr4L+PLkeXsLfwIivtzTqD82NfixpE14jbpyMp/KDLUtJQ/SABRfbefqPkueyNTAvZIYOy0VDHf+pYmV35ASQmZ1wFkNYaEAmelxx1fdALJrKqIqz4VK4KQjXnGuGMDaiysrouHMlCcICqPTxpirfWpmpsHqitkriiFSuN1nj9nbj888OH4kT89tWQuRweEltTG2aebBTF+JVuscTQJADdzgY8YRQtBfatM7Q5KlzqjjZhYMIKBe+sJXHP39xs3pUVUCYNWfc+KejyTptCWiCg+DesJhZnSELbS9dYyt1XHsiqUQiHa7TlNocx0z1to0b6wgTSQDHF7Gm2wse8xls5ffovBtYeJQLwLNdt2x+xAYauNZjc7FskabTrN1SAaoNT0CEJcAaAVgILGmToSjOQ6HIyfi8MQ9RyvJuf6cQxUhUrTiifkDNK5sawo4rdaSwNnrVRASVKdWNAWOWK3lgbP15HIgBGXjAa9V8rXX5QOYsm6dlBMRsMZgLR+HoIb59vOBUqvVGWpquESqVrXJ6txCze9dejssyqEVlec61vfIx49DK8NSgx3+6A//DltOQgAFf40spf+1dy+opxzlsWbi4cOHNw/5AWpWy5W1mlWzx0MG6JG192Qt98Z3s/9sas29m59LgRrA3uuS5fqGKuIX0HPvv2NQz/uwsv5hCErQIwUMQUHlxfr6+kM9yKqZkFccSpI2EKkbTz0c/6+9sjiAKISBKGSu00lu6Y/a1/DV49q8L0AMBwyD4MilW5kPodebA2MjtQIcXRjnlF0xifpV2NVgM0MXJ+ds3ktysRMFm8wucJWx2l1kp8xqi80ttyLNIu2w+L0Cco0MK3kTRfochBBCCCGEOAIpdv50KIkXEgAAAABJRU5ErkJggg==" parent="1" vertex="1">
          <mxGeometry x="790" y="261" width="192" height="153" as="geometry" />
        </mxCell>
        <mxCell id="ogEo_6NqqmNYCkTCZS1q-23" value="Docker Node&#xa;" style="shape=image;verticalLabelPosition=bottom;verticalAlign=top;imageAspect=0;aspect=fixed;image=data:image/webp,UklGRu4qAABXRUJQVlA4TOIqAAAvWIJrEGpR3LZtJO8/eO6k/UWEwrZtkNLwEoooLqT4GspmlnPQ6SlwS/iwlvFd0hm30Pz+/3I5ljN/5Pei4TI0Xma3+zK13R7+H+b/mP8gu/wF+T+O+/Oc8/zO85zznNCvFhWGYfYizDB4oULtoBefRUvOoivMaalumJMLYWbyUEldwbOwVCO5w+TeWQozJ0OWwthSOVQKPdItqSXfUKkV5ngxEKahVhjaUkvVi8vcUmB4Whqe8SJgVRi7pRNoDZcUziXJvQgz51JwmMdSe+dgtUpD3jk8zLQM1CLMaQ1ZCqeCJ1CqhRWmYWYr1NEwz1QYLC9OmJmZuqUBBy+c4NFALQIt+YaZORkIZxh2AS9a8g1ZrQpWsBaB4fGEOQPWJYdhsEvqnWdx5VA/0rU0TBUYcPhqsFsK21JaDg1ZciLblu1GYM7eu0MpVSlTNtoEjMVYJh5mYEyybdtW26b//xczLAijQVKYU1kKcyL5lpnhRQIYAASYZNu2bdu23bNt27Zt27Zt2zY3AVSs/19tLZM89zXc3d3d3V53d3d3d3d3d5dw73/vfe7d+/zeeO8QaAzB3bL7LxK1kx0GoAOw5O7uLrNwp7pFNjINBsAianZI7h7dtdFIdCqVaJEBEMnuTTs06JacyhQ00qgsdxmCu0WnMwBI7jQS6W1Ea3TeCEMg6gDozIDFENyaRvf+W1R32tsYAc0h0XQellgLggCAZaPX9JrZ3tm2bdu2bdu2bdu2bQ0QBAAsG/3/GdVs2/bOvtlJjbCMIsl28iNRAQoznjjiAwPcEIKAngAdVhSiC22FjcJD4Z9AaeGvcF9YKzQXIuvIQyGmMFP4zaAo/BAmLBNpIFQTPjJoCq+EkpEFQk8G00qhRSSB0J5BVqgbOSDkGRdsOgtpIwWEYMJVBl3hSKSAUJ9BWCgVISAcD0bC5sgAIRaDcV8hTESAUDUoUSgYESD0MrABIza/ju30pe3nnIrby7lt98TmtsLIU48IEMZizZbYWR4c+32k7I5za6OmYEKPiABhIpQz9w25CrfKsw0ZBwkDIw5atOQqvY0eiGTYoDHHcu+odYz3SiyCIT04wVU8J4IhEzhHtY1v1kND3LHeezvIpURih7lybPcBVFWUSFR7UFVRIlHtRWBsfmtIcrZloN4keb9Qb5KcrbkIjKZiPhXQaJ8KaLRPxUP330P330P330P330MTxSY3z2c8lOczHsrzGR+BMXdaW+++rXVPdEybC6BdDIxGx9RDuxgYjY6pj8BQ8qH1rUK1JiIRDBsypkqtY743YhEMnDM1tSYxkmH0Md1rKg3eiEkRDaxonZY6c+VJs6XoGAgRhER2UZiPcYNGzd5CYqe5t/M8UjBzuzlzvzE6A0I4ofHqwmuGtuE6IaTQW3jPkDdMJ6QULjMEDs8JOS+GESpf8GIYoSKEuC1GqizPSBUhrPA2YkVoxIgVYX3kivAiYuXuaHBTWzRkp7lTo2K/bfZI803zw9Bt9lC/GhUz5+jAprfEWMYWu6GopEbBku3nwqhkmE+IhyUbXGW9rXSboS11k+cq2zKVpIFNbM5gV9lWaWxs08J77w1r0ZKr8ha6wcBszbkqt0wFa7rEMd0brsJtLshxDPJcpY/l3qqFNmzcWKXc44LmzClX6e30hGPwDNRyR0Gzrs9Vu0VLSJcqtcbGbMItCEuFFKHejnNDsZ7QGMXWQypcxQfYBGEr+56SEDG0q1FsjlSgbfWYYjVId9Uq7MHtkeTl3p4QJPJESCZ89SGFi0KhSBMhqHCC83wrQuLIEqEfUeGn0H9aBImQVfgDkcItIW/oVxSPxzOxong8nokVxePxTFOUbLvH4vF0rOQ24/F0rOQ24/F0M5Tmx+NDjvnegkrz4/EhjVBpfjw+pNFeCKGFmzRaKYyZFuJNIMlY67SQCSQZq0cmkGSs3gRtLkiS5JypIfVJkmxA6pMkubQJupPkTOuAupPk9ULHRZLXay+eNv0oXPiLoV3chzvKDSTuwywk7sMsE2TRN4pk0TeKZNE3aoLRPhXQaJ8KaLRPha0QclT6g1OEBhEgQnDhCv0sTOsR8bE8/f5DhdgRHq9R+OI/Cs+EzJEdwiIGcopQLpJDyE54c1uRNMLKE47gEPZBed6y38wIKQyK2BCKEY3tPE9c19tGDyWNUJgsBI7MKBfOQFvqFte3pNkSRphoF5EhVCGa09gWt3HmdRmhsKxdBEb5l4GGuPM8JmaAV98u8mJdos/aA9yiDZtggMK88ogL4TC0vZxz4bnybLQBPu1Ii7MjmucarK8wQKF7hIWwDao24jZudisM8PwiKoTURPNc415vA32F/JEUwnRogh9cbxjGExeSRk78zSlIgetXbxjGJUdETAhtiLZMxT+uN9O6MN5KeaREH6SJiOcn1xuOUegSIfH1iUZdvx/rvZOH7VbIHRkhzEBiuf5zS4dC7CpEioSYJnxAprqBHLwREyBefSTEEyCaFRA3KwZRqBUBIaxDJrsBnoQJ7y4l4mFEZ2RMoNxhEG8l4uFmCMbqA1ZYAPGtRTrcCrKZLXMD32GDxkDCk7uLbOghfEbyTeDmQ1whskEoSjBWagZ3c1sF7VZIFdHw9pF9uqasL0P4MkKgdJ9Y67SQCT6xXSATfGK7MEGbC5I+SyP1SZ+lkfqkz9Im6O4zFeruMxXq7jPV6oQbSNwc7llCXCL0cavj8UklLlwdj08qceHqeHxSiWsCt2ZSPF7kwjWT4vEiF66ZFI8XuSYobdFSPD5HB7Kh0iHxeEM2VDokHm/ItjghDtHWaZnE7Q4JZ8tDHxX9p6JgSlqRUA+Z7Jp14SRCoVLkgjAXSZnG3Up3QF+mPGJBuI1MME92DkKhQqSCEIVgrNE8bj4kHA1DNIQH1kUmuib2JiMUcoUiO8w1xe4JGqjYTnILKVAtx3qEAcg5mck9QegyQpFOis2yPmimdSg2CUkWqpUbs573hcyZmqncAmScEDcEKfCUyu0CJdtcoFYFwny1BtJ6hMdI67TM1YBw8RCEA5W6XuIzPJXGEK7dhUoduljPyRIsc83tjUaEZz8rBOFWu8NTZuxUGn3fpcp4URocnanOjnIth9azILLpLTKZ2xOhUMYujBDSLTGvyjdjgKO30m0tU5ug4hwd2ELXldF42aiGCSrOmdqgZkvQ+Izb3F7OTFBw6W31SHcaFBbOq/aHFaKZRGiCvGCzZXdBhOW2QEgqDF+S4XLh6Q8S8ptBGI3km80dhQjfR1jfaxSWCP8ZVn9gIVvghNXIdNNlIjw/yxNK/yqG2yuPVB4o4SRSbzq3ArkMq3vwSobhhVnlARJeAjHPfJ2QKUIoa3s5lQzLC8MCM43gANf8c98Qwn9iabdw4gzTH3dAHjayqS1QwL1zZA1LOyTD9cK9nxWIN4j0VuECkOO3soXGhe34EgIxLzJKhVZpIFzRwk6a4ftHFYgngAxSwR2ACA0t7D2F8SoXCMA3RwYqcU7Iz7OuHpVhPB53AIQAJK7EJ0X6WNcXJB6brbnpuY0qDm6ZykRjs6ynqM0FjSq2TusE79wP36yhvlHFNhdUD4sZytlGD+08j0obFSwt2Vr3rGYsp1NNaaOCpSXRMgNCqwAIHZF8JXKRcXdnWUImrDbTVTdqoLjaVXeSoZ6uulnFBoY3usqWrmxkRrarbG4edjRznKUSbvOlAP5xWxDbSe64KnfEJrgqRw28Y1flHeQKVtDfVXjsa8Yq+rsKX1FTMWjxAAidlJt1GURoaQuGuUqP7YIMd5WuaiIC1fZXyp0BFblKf1us2lV6jg6YZCWkQY04IkwFer3Gr3/Hawld0z/hWQk7hIPn1aePcKdrV+FBnz7v6VMKO4UVnzD9g92nUPwLHjSobT8X1HKnIi1aUst9wdABXLW/LVLmqVWYRFZz1W6MmS6uRhbyKbX+0Uus9e1v5bye9TgG+Fd9mbP6A2u+wQsPToMVG4T0UywO3ZNimchEV/HXjGxyCxRzB5jjmyt3RUjnL/NSaGrhl3BqjZew7+Az9w0pFkVqFDtLKK5YDdJdtQqku2qv2XRb7wE13BxAzSeyG6HpQk7VcsiWu0WRlRXzFa4Jw/9huRN1dsgoRWZZXxAg+dWEUUJG5+nxIjMU2Wp3BQeSfW5PCO8wCTGQiYrkBw3ypQhTFgouVfFUqv10qCqeSrWfDlXFU6n2003g5adSt5OAvPxU6nYSkJefSt1OwhRF7VOpfA8qap9K5XtQUftUKt8zQes0ttodqVRdPXSokalUXT10qJGpVF29GVqlMTKViuZCg0emUtFcaPDIVCqaa75efYEyRZYOIuQ4YaWQJphcAEnGcpELIMlYLnIBJBnLDdycqdG3A9JA32WRBvoua4LWadF3jg4g9fRtQOrp22CCPJLc3FZAeSQ5HsojyfFmqCDJ3lAFSfaGKkiyt/m0cBdgoxpZQYXc89W/t+CR8mENkvJhDZLyYU3g4m3JQuJtyULibckyQVZbokhWW6JIVluiJhjtUwGN9qmARvtUmKHYpwIq9qmAin0qFBD2IiVqdAhclzLfpFnItYVhQiinaH1kuzmlxmB/JCd3P8A77tkylaLMZdtc0Oi589yYu+xP2X4utGhpYMcZzZaIBYb8yK/VIfpayCA1cqFkxelEW6aySq4bcG/Z9E7Dmi8VAFIY38MRen/IcDUa2/aaZ1pHNL11Wp5r6rHVA/eZ9Bcf+FKcoBWRWjWymdN76z0wfayraGHRFrtpgH8oPHt3DpBeFOBgJdx6V/WSQaP9wWtdywHaPzJEjaD4Zk4naYz8hD0cH2EIMltzluW6pQNrjVE45PisizQRsTDXLYznGBKOOD4nWwmwVRpW5rqF0Q0aY+A3OT76yyA9rc116ze7ZVDlrpwfYQRyplbnuhXI/rXzI+RDONjq6omu5QC1WxTpaXVb7jZktws4QHo3SJ7Fje2CCNu1E3THCEusLUpUqOMITRM+IbO3YGmlZciJj3SE9CGRjGwrSxH999oZOhzCSRZWn0T6/miHqNd/RkZ71vW+ia6vHSJ9NIQNlpUgOk5I5hjtqi8y1LOoxgGQMEc7RvrvIhxiUR2Jdn7YDpKQAWq2hGdJ1YSFkdpB0s8bYdyKrqiJCDT+ZB0loQC0WqkFzSAsVNeOkn6jCEdZzxjCwi7tMJ0dFFvPanaQKzFo7XfsNOmXgbCgylqWLSN8I9pxeoN7Rhi1lNJmSxD+Zb1CmTdj7M0YezMWVGaszFiZcvoRQbFMCymcSDjtvemgsbRPTiGytE9OIXKCPjmFgcvyyWhzAZLlk5GLZPlk5JqgtNjnAyGlxT4fCCkt9qk2wfX6HAC6Xp8DQO/bZ5QZZviMgmb4dIRm+HRUSoh6MQibL1VoGd5w4kINHTzckkQiPdeFSxKJ9FwXLkkk0nPdwLkdEokJg124QyIxYbALd0gkJgx2TeDWpycSd+TC9emJRAcXrk9PJDq4JqiqTiSqPaiqOpGo9qCq6kRih7nmmaGqOpGY7kFV1YnEdA+qqk4kpntK6c8L8QBW4fUm/gl1MFHRbyr6T0W/Kek3JRUYIbyBeJbW4PUm/mJ6OFIjT/gMif/xGivov7mtIH6GK2oHahmhzxOh4dc8Nvg13jnxzl9fO09f/wcdhH68Xy/o7WJjm0aDn1aHDg3B6bhU2/hmWNCPPtrnol/bu0F/vRwaXEkHgxrFUki1YmOgqGJvBnnWquUgFaqtZo7DP/sXs2f6NdmiJTfoD0nS4CnroDBEsZWRgYpdLzRDsXtCYmPVGkw02ajWoRi4bse9wkemvwdkusG+6gA0ehrlwaFCrRKiTcWqlNpFEoq1SkMpbyjCe1Lr+ULsqVYqQN2OWxgqHO1L/x+g0Q32NedJo6dRroMDoyplV0B8wSp5d078TKtUuh3CGTUq9UtiXWpUmh7z34ULWW7vlfcZx0COLnKDfqckjZ5GuQ4WTBUq06GCBmddZqwyrdO6cxo901ZpKNM4ews0WPZJ1WmZSgYNrjZBnYYM+qPHF7zjKxdW3lZfBviP1/V3g/3Cd07DK5Tr4MHaA9xTXMXo8BgNFw+7p7iKA3snaTw2Y2BcxXuadZliGj/PrXRbXMULaD+Zfqx4x3EVe6aaL0WDP2/dtZ7E+sJ+4VElTRi737lvyA32VXVJGhb6arN2O+7lhQX77/MKuhoVnhtxKGP3u7Ab9D/pABrue37anCNegrC7L53aLqlduEF/vW9G4xcjFNGm/PR7SqNjO7FFS9lu0M983/TjbQlJtBl/1gnfBJ3a1c6pxg3+q4ynP4VVd6fNKCR9T3Roc2Zvodpzg35Vw0T6s/PtaVMudxN0ZAtuZ7rnBv8Oz7eWfn2cb1Cbcq1KOq85U4cMdi2wzQWdKujfyhVGalMKzeiwxiaPajiUa4U1A/Ni9PPrXFCb844rHZRkxbAL6JftWmHrtM5yVBMR+r3zHxipzfkFp9ARHXBco8YkWqXhuVaYW93zdAYwkMKGhbRJp/Wh8YwyxzCn2RITx8+6zPPt1DKV6YeqcoNpo9/GlnzSni94eA4DLJw/nDbtldPgxJ4l/V2He+4bisVqJ3+z3gfomGofjfaMRutSqY5Tu59nE5EkzfgKhJrl2rQrCt+wiW/GdcDrqO7xr3Xh2sTzER7kuQ64N0CZ97RmL23mT38QKN91xNOpZl9h5bza5IsQrXOd8d5KdD3SLWjTvxgkz3PG2lwQM9/lrnF25dr8l0J0PdcZH0iTC0+F2eteuFbyTSJ37jrkTcXMNE44duWvslyrep1IvkNWTbNOEfZe4WvtplUWtiCt0nDIfr4Zrvio/36Pb/BnadUfJ5D0nLHcWAC+9TrCufc13428tUNftQ6O7wrIcZ3xTkTvc907vuNH983P747v+HDzCvl/0Y8eqYNsGvCaHbKhyF3q4I7kOGPTib4tyyhzxmZaB3JBdxfkvprDVh9D9q6DfFeg2BGLEhXSBrtVATph3gDkUelg38dZ217OEN2jlRQ6YN2Ry+0R9IQjyFjnqwPRU9ZB/xkjc9+Q89UR2fPdBr/VkWUdr7EZyFF18BcWITWOV0+iQkULeERIP8er2RLIV2tnAdeJFDld6USX1xa4ODJnak7XPpHOf9gKFkHyHa47Irq+tsL7RMY4XPcLCekt4Zkjg5yt3CQiHNCWKBRAOjpbdUSFytbwi5Cpjlb/WkR40M4ahPjIcTlaz4DoStoaD4oUOFrNl0LSzsUi9LcGcpys7eUc0RW0Vf5nIOZk5SG7PXXLOC+AV+RcZRG9em2Z948s7FwNh16EdbxypNqxKiE6v7ZOYTgyxLE6HWhdC1kKuSenqnVaMaRPuYU8c+TinarZWyAq1NYW+iKQqQ7V4CSy6s+ykktB8hyqjkSF1tpKy3cL5DhTbS5IIpd7UEvR6wCscqRSRJfX1vqokFZpOFG5GzQGWXSExQiLkWonKkV0cW2xiyMtWnKgcjOQtKu2mvtEBjlQKaI12morkJ/vPM19Q0lkyqe3nFNHNr5ZzlNHoqesLbfXtQIZjlPrtGLIlFuwHr0kwDYXOE2zLkP0lLUFL4b0c5gWjiEX9Omt6MKQfIdpKtHFtRV/cyTlLGUSTbtqS7pmZLizdOfQlWtLXgBpIuIopRM98RHWpJ8IwEYHydvYpkE3oi1a2IP8FAdpCNGvNtKq3j6S7xwV5kD3qa1aCEA6OkcDiX6uXpZ1b8gmt8Axqs+A/om27LvbM5DhOUWjiD4qbeE/CeCyDlEm4X9oZcJK5AQdojxIWKOtXOiGPF9n6CyJrr2QpV0OcueOUHYOdMra0pdBMjwnaBDR33Oy1qZXBbjzPHKADpWEnrq2+M+MDHGAhhO9rXZWtwgyewvOzwkSfq3a6v8hUuD4ZOdAi2nLn3atAK/I6TknogcRElqf/qFIusNTEoOuXNvAt488X4cnj+hHnmYH1kTO1NnJJ7yutoOXgiT7OzmDi6GXoe3h6wQ43UYZhAFz4hprmjo7Jgab+gYrqjoTNFXKhBlEOy9kEx4RMsgm6YcAGzo6nwWuyBtEsn9fCr5Pw0RvXKhhzF20zbSgKiVBy1QIH0nbxAdH8myRYTTkNsIW65wh7il4vjAT2HgpA3Jroc914XZhRSR2zPeGDXLiYop3x5CAYacw81Ia+E0luucFtW18BQAn2B5jJCjkEEbCJvvzuQmzQe+TEt67to+fEDknu2NeUhPnkiHBA7chBhEA6K4oBxKenqyNeGvIUJtjSUGT4IkjJYYew36F3CzrI/zMtY286kqArdKwNWZFVfeRUoN2IwYEALidIOHFtK38oUjczhhCQVG3KVKypyQH2NpcUAb9qkuxF8JgZLid8V3qIq7Jeb4Ai1dWs9aK9+gowr6hKMcmo+Fj/uYuuCXn+qxp6KC2T8IPru3l2SHJQvtiWUkzK4fkXM5J7acsJeJQvRpCEGwT4EYTnQazOOHVtc1s96sAptuXMJMYsaNeW/LULkCNC7aoIr7OvSwgmytPktCvuhS7oU8Rma0522JNXUfs8Me6TIWjkGkj7xmvGEfUXQDzNrE5hD+mtp03g9R6diVAvYcV+8mThVgMsh3XfOJFtgwMAHvHhB+ztp9XPQ5glk3ZPdE7xyrWtQ05momf4XcqvHaQK4RP983ZEP0pkYu3KeMRM9DyDXLNWiohKYfjFfeGAVduDiZU1nZU6Iw0FbMpnpIdrGJcWjihrcIXvGhxYHnHRfiitS0VEiDMtCdBOxFG4h9KL07GTQ0pclr/RYNBvI8esOxbGYC1te4hfPx3Z0/0c0Ha25PIawTjb+Sbr2GJ67ZfYQ40o7rt/Je3XlFaBEWpDLfhNlhNj0G7PbS2qcsjA+xJrDOGcQovZvRbG8NLmgNUuTmEl9d2dd8Id5xbtiTONcNwWPVBqFEZPotckPKGE/6dvWyL/lxIR1syJ8Nlyw+holxZGBtAqo7wxayo7avQF6n17EjkdYLhb/5CIF0oUZI/huEuygaodOJfUttYISnCdDsSrBdhJPgkdKMlwuSqnkNMB7YmOLVOqww7JW1rzwuZaR12xGumg0GFWNUIMzRrQDAVnifhH3rh9uaEkVipDbFtZGB5G9kTRA9GcjMj/j2jHwLANJXwiR9d29tbqAQYtyGGMVCSb45BowlhOn6GmIFbERnKA4l/b213nzFSYUPkwO0IK+KpIT1KEL8cFdPeY9m1MEApnfgpa9t7MwhLbMh4LPIzc6YPL+OTmUhU5EsLMeNcMacBqUMX7I22sz8jhQ/IKBsiR1whWBRk7S5z0RhuuWvmRbuxEdt1iE2Gce5rJvyubkHb4DWQjGwbUjoHivuGmIyeqpyVAT1kiNaIHfOEMoQEYFS1MuG1703bYSEbwkk2RA7Y6OFAFPvZ46j6U9FOLdnIJKVLCcqQGZajUkaJXl1uOv4k+qaIq21jgwzjYcTvU9vj20IK7IgRHFQ9F2F7lmFcR/xpa5v8cRG+GRsiW5TVnKmcxQwCAEZzdID47/xZdulkXwoy1Y7IpSf+4pQRaZU4UQZxdQzr+um1bX5ESGwXdkS2qqaL/8gJF3ocM4KBZBDXFBP+1q9S2+dfhPDibYlsmq2KsEAI1PcFBmBABnF9DuHK5bSd/mVIl2O+t2yJfFrqxB+cEFG3KWuaOhnGpc2XIi501Lb6YyLsZE9k2TgF8pbtSPjC8Ym6Qzl2Md0lwzh7IvE1tL0WQgjPkQGeTZHlBxw5mAI1e+LeMIxZ2/ee5xpDhnLVPokL24WgNksfCWGLlmyLeuNkyLqWrhanHpYR7VkY7t9dhrPXm3ifc9F2e5kpyFDPzgB8GPErPnVtv4VJCFum4iR0JH4Th9Y2fKFxSIGDcE7E+wrFtC0XViOcM6ccg0HE9yzU0Pb83qACzyEYRINCB23XbxDhWToDg2hwT9q2Lwg1FfOcgEE0uHdt428Q4SQHYBANCouEwHZuQSinMOyXosHF2mlb/zsRRsN8XkcafBk9tL0X8kMZbS4I63nDaFDYP03bfWELwmHW0zqtut4z6g4VHqjqTYPzC2G07X+De0aYaTGlLzhGkrFO4YDG7jQ4fzcdAr4QaJNbYClVPYs5jy1aCv1KJ9Lg/N10KHh04QfCBgvZXs41X4pgbWGoVz+UBufvpkNDYRxUe0VWscNcyyO+g1wK8UpyaPCLdtMh4jInjnCUNazXnUZvM7QryqDBl9FDh4yfF2I/C6hzSuSfL7QGuhYtxWhQWNlDh47thAtQgRfslrkGhawMcu+YRtdvp0PJPw4xGtQO/mpYFHQUGe79r5dGr7Nch5a7gWI1wavNlppGYXf7BW5tLphIo39Ah5orTkF4nlVBqs6s4JpbUFg1ICnaYMQEE5DBntlEhAYrv4IOPX8axLpgtP4+36DQuYpXhVzTUbVga5lKkgaF719Sh6DthNNQrCTYVG03Z8ZdBIXOhJjirv6AiKgHmHntaTTtj+uQ9BftFuHQ7GDiVY8qpuDpYaKsx31KzuVIfaI3zhRLBbErGk6jXYXUOkS9MIizLhM0qj7QbM2V0f9po0LMBrzYipihxzH9EACvkqZiNPqeLkWHqiM/MsRvGxTqW7R0vV0YQH3IIMNOSwneCeLqMsACriFJGn0Z3XToes2VUJdDqZb9gd7xRAZ0O5PeTxJ+EcQ9yRc3IKz6H4CGn7YQVIeywnCIE6sUOqZ7rajum8UY2MfMB7/ainhPtDuk5sqTAhrt+9R1aHvhfSDerxrZP+UZ3G/zpRjwrGg5DrJ+JeNwJKSfCg+gzjKDRn+VUEiHum9wbYin84HmyrNCMxXuPI9eTnTqaJpQDYjykKrz0X9FQjuwM0GpcBQNC9eFpDr0vRHMt7Zg+P2+49t8OassnOv5y8vtUD2k7n67NxWjSdPFROi3nYt0YiPhE75ypoVUMMocSsMP/1x0CFx+VENwcbMl8sbPvJ4DpOqivnWpi7/fmdYxfOXJtTT1IjmLVDgr3hiElLrZ7gDyxsRoWOhXrkPiT/+sA6D1MyWmGHd/EuXcRkpvCj5z39Bx0fAFLadD5Sc/Lkili4ko2mAk0AxAmrJ36DQU0/BtCcl16Lx8MEofG1OUwYiP3qvkPB9p0mQcn009HWhye9O4sPCgOoQuf97BJjNyWkmWM35G7kgzx3/kzAirALN0LQ0LP9+WDq2FSMKtIKIXGZCbRI2VqA9RLmyk2Scyioegknu9NC7ceZU61N53WnDQjZDlJFxm1GXF99DdIKQVPx0eJg1lNP53hXA69H5/lco9lpd0g2mfF76HbpJyONKyARo8ENnFcBqfcp86JBe6qZQBNi53iRr9tgtOi7eiXzlIi3tOcYDD20YPZdC4cF5IqUN0YaEKt2RMSMpVrKY4kwkrkZ+891wk+CBIFJ15WYDxUwpovPKUL1yH6hd+gwZim3qclT4uSg9SJlhayJAM8QnZ0PNyl6grTLPPiMuKnZQf3rouol46SiURfdqepQESx3Svzd4C/bjOEjqEH/FcMDZ/nBJy2kELxn1FIl+Ygiw/eO0+cV6x4bTkn8OcfzYSP1mJ/GA54oNZ/1fvvPOO3dRfDrP+uSrf8dpx5n/yIeyu4dpBSJyv2D5k8J7BRkwQ+PEUr1qH9LfwnzGmgw8KPGQiaU30zu0rRFilgn4UXgqVdKj/9IU3GOrDKHw0Q9JCX/E43r8IBQbPsj768zF/eh36P7KLwfA7V4Un0nKEf/XsbV923QaNoR8v99PqsOC7uwkM0Urol1kl5Qj/6tnbvCEbNYX+FBb9YR0mfHc3YQBLsppJ/MlJyhH+1a3bufQC+nMdoaQOH17OQQxgnopVMc8JSaEzp1LZVrlz+nPcdY7Q4UShwE0YwIxpUSGmLZJCV9gyNKhmHXrTr8KpV6nDjC/idA2gLpTIRe6RpFAXjhxNKtjCpxOjP9OE1r102PENPmsDiCVbzyR8YaSE+k6tarVK43Ri9Oshb0GHI4Vkr8AIZiOSEXreISVEW+iHAFVq4VmXidGv3/jd6TDlpXxjI7irg5SN5ByflFDQLuRXlanm52/ACPr1ct9WLx227LaYEcQC1Fui7GFSQuHniW1Vo1XG07/Cjws7WR3ObCeMM4T6sApnOQepJIRiXzD3q0Dby5kzpZ938950uHOpBvkg5q1SE2HdIyGU5ItbTcWpym+2BP38ahfUYdDd6uCFulESa+HfEr4y0kHkNcOhHwJUmPqtdkct/bzkcjo8qgDCNCQvxExZCV7qH/qWDgoxgBgjQqpKv5nXE6Ofu95nLx0uVQChOZQfYn5qDSGmbdJB/a2pihQ2TKS/hRc/rYcOp5ajww+xJOupKHuIZNDTqdOoGnPlyTmV0d9nuNJBdZj1OgUQHgFQDSky5rYW7QiTCqKQQ9h5qkRVy9TunH4/caHHQXX4VQGEfFSD/BD1oCRmfF5FPcCkgm6zqadTGTI7FtPvZyh0HaHDs5cqgPAJgHi9IaeliJsei6C+fZW4dlcFcjsV0P//+fNO02HbaZewWz+QLMZkKMiISRqIYhxRa0pdYctUhsfof+Hag/8sHdZ9ZP/CL4i5yZV5qLppQRIolbcsx/AS5hWdTgYDuH+hrBBYB/ZchKpHetpCP6H2AuEM3U7ofEF+QUyfHGY1/EvUfUwKiKLtUhtLlFc9ewsbMYEB3O3f/T86wG/uz14rfccdUogbxtD6Nf5d/yBiwVodnqvv/pYAIn81HmMkSHq86lGrMZC/6t+vqAN9b2fIJyIMXuLwQv4rX4eLCoXDGVoLeV+MnxDTxgeZdH8RYsrWt/hRzU7dTWkkJXu7OXOAMgb0ywgBB9UB3/dN8KxGaN+DCrN5ECFrWEOX38yqfkLEbEWz7CdvRNxARI9oOIuyGsmozx+fZEB3K6x88tqE5a+Wl1F+dosIA/d05c//Z+nzoHCpV1hD6x5LnaG/EDEnySJ7CVvtix2l8lftMUFTSYDXb9DGN4sBXvVIl6JN+b055dPr1XmQJ7JnCju0ECmNa4Y5tD7ojZyh3xCxdbsJGz2KG9GGHuJtu4tbmwsaZl5XGQPc9y0JJXppkyZ4GlqvzjvW7478zvrP8i2FPbQ+6EpX7D9EzEoozbzvhwC9ukQfnJgR9efE1XSXWDVuL+fOaTIDvuQH25U275K8mba9t8opJ6vfGoXbYRCte3xz4XIAEFEvWlG04ZDrwrMoe5iIEf3nwNaURnwaP9CgvBgD/qvmE7JpU5845/VZ8oE7r3o5Wi/ItLCI1loo9r4CoT5rkQxTni+81j/EOCVEiyjKFlWLfggQkyua0H5ijIG/VmHTmtO0yX8ShfI+wtF33necUFXrgXzW4RKt9/3zllKK+vLMeL/y0QTFuiBEimglB7amNOLQoUVLszU3mWbc8/xvawFt/qPy1/nMq4XGfAVaCz04f/hE6+MUQDgVQHiVpD4r4bQyXeWfnZ/kixMjougHlAs/ywOK1SfqhhfTnOf13x+2VlJozf/8s9qyTCWPXt6HHyycoq2t/eNGCiD8ylJfV/6qLZaDv3hvAm5IJTpE8e+ZQ1yaKvXbz4Wtdc+MHJp0zw98I0fXqp7L5fKD6atPe/JaC1vS7nMtpv3hMIu2tgII45f3Kk/DtHABBaq3mff74KH85vwzxYWO0O4h/P3j2Zutf0lDqvtGTKJpKz/l633YWuWXwHE/Urf9n3Tm69Xh2L+6a04zaJy9RI4B+wV7iRu3hltx/S0eRzjCER7S///+1+cwyTHfG5kNz3fGgBhNfEGP+UcuoFW/BFJYe829tH6V6++Zn1CHa7/gFb5Ok7R95pc5c/3Ycxw/rx3nrzce4r/vvv83Egei5SqyKKtRTmnmnKlFZ13mTGtp8lXneznTdDD8kWdIdl5nCnkxS+lw7i+6wudinnnMnJVSiFaXCbdn9pO2vNQ9BJ+0RDvEztRqRPTQ12/wq2qdVr8T3EYPveAZBRk0f+cbXOkLHsPDi0BBs9tTv3/hTtqq71xoL0TS4d4VlzrqtZqK3X9uMhWldWwn7p+bkgs/nZpzIu8gcW+ppH8+rULUd7gZzGWAxRgJkl0vd648mX6C8UGzNTejopaqPuXr/N4H1Q7lCKHqIb+a+TinRwzJUTKvQM22Ei2nTHq+sBzypSnnOUcL+WiGAvYbQs44Imx4Pop1QcV7YP5OxvEp5cz4j8wXPYVbdoWcth3mq03lqerGRe6R3fgNS0GfjLk+KcFiKj/VprThqC5UXHiw/s28Oe1w/sXf9PDTlBE0XWJQhpSYrEVTshcrWHbZPOSr8lVp4Lid731bf+s46BZfl2z2edrvbPo0gcFVuL3+S3hv2hkVgr67J7F/4VuwEP9xwvn53qQQSzurP+veftpbOkO7I7xaXegx791ph/Zuz+80hDPXak8W/aun/GkX0k7vhR/6bT2ib3ytduKrffcLuxkhebl2jC/80N98hef91Szvgn6oMOvjCgWuWjvSJ7ugEPC0/+o6e7agyv/8voQJn/c2frR2vKft+ystsvcb/M8vSkJan9Wf9k8TKhy+h3bW72jvmU3Oe3C95h4So5fyOue/emHUSm9NyHzV2uFXAKFb+MPG6j1qcgUQ7umr3uVArdTgE1lSOPCWTmNPr3ePl/MFR+hIxEXXGmGBzv5XAGF797dXFUC4Trq9oZ0/faGrGXR0dHRa49I5LS1t0a7/uc833vnc2+f59tDNu1MAYd6ks2fuXLpx7TA6;fontSize=14;" parent="1" vertex="1">
          <mxGeometry x="801" y="630" width="181" height="129.8" as="geometry" />
        </mxCell>
        <mxCell id="ogEo_6NqqmNYCkTCZS1q-24" value="&lt;div style=&quot;font-size: 13px;&quot;&gt;&lt;font style=&quot;font-size: 14px;&quot;&gt;Developer&lt;/font&gt;&lt;/div&gt;" style="points=[[0.35,0,0],[0.98,0.51,0],[1,0.71,0],[0.67,1,0],[0,0.795,0],[0,0.65,0]];verticalLabelPosition=bottom;sketch=0;html=1;verticalAlign=top;aspect=fixed;align=center;pointerEvents=1;shape=mxgraph.cisco19.user;fillColor=#005073;strokeColor=none;" parent="1" vertex="1">
          <mxGeometry x="820" y="850" width="110" height="110" as="geometry" />
        </mxCell>
        <mxCell id="ogEo_6NqqmNYCkTCZS1q-25" value="&lt;font style=&quot;font-size: 14px;&quot;&gt;Code Commit&lt;br&gt;&lt;/font&gt;" style="endArrow=classic;html=1;rounded=0;fontSize=12;strokeWidth=3;" parent="1" edge="1">
          <mxGeometry width="50" height="50" relative="1" as="geometry">
            <mxPoint x="-360" y="316" as="sourcePoint" />
            <mxPoint x="-100" y="316" as="targetPoint" />
          </mxGeometry>
        </mxCell>
        <mxCell id="ogEo_6NqqmNYCkTCZS1q-26" value="" style="endArrow=classic;html=1;rounded=0;fontSize=12;strokeWidth=3;" parent="1" edge="1">
          <mxGeometry width="50" height="50" relative="1" as="geometry">
            <mxPoint x="80" y="750" as="sourcePoint" />
            <mxPoint x="340" y="400" as="targetPoint" />
          </mxGeometry>
        </mxCell>
        <mxCell id="ogEo_6NqqmNYCkTCZS1q-32" value="&lt;font style=&quot;font-size: 14px;&quot;&gt;Build Docker Image&lt;br&gt;&lt;/font&gt;" style="edgeLabel;html=1;align=center;verticalAlign=middle;resizable=0;points=[];" parent="ogEo_6NqqmNYCkTCZS1q-26" vertex="1" connectable="0">
          <mxGeometry x="0.1361" y="3" relative="1" as="geometry">
            <mxPoint y="1" as="offset" />
          </mxGeometry>
        </mxCell>
        <mxCell id="ogEo_6NqqmNYCkTCZS1q-27" value="" style="endArrow=classic;html=1;rounded=0;fontSize=12;strokeWidth=3;verticalAlign=middle;horizontal=0;" parent="1" edge="1">
          <mxGeometry width="50" height="50" relative="1" as="geometry">
            <mxPoint x="510" y="316" as="sourcePoint" />
            <mxPoint x="800" y="315.89" as="targetPoint" />
          </mxGeometry>
        </mxCell>
        <mxCell id="ogEo_6NqqmNYCkTCZS1q-33" value="&lt;font style=&quot;font-size: 14px;&quot;&gt;Push to DockerHub&lt;font style=&quot;font-size: 14px;&quot;&gt;&lt;br&gt;&lt;/font&gt;&lt;/font&gt;" style="edgeLabel;html=1;align=center;verticalAlign=middle;resizable=0;points=[];container=0;" parent="ogEo_6NqqmNYCkTCZS1q-27" vertex="1" connectable="0">
          <mxGeometry x="-0.1249" y="4" relative="1" as="geometry">
            <mxPoint as="offset" />
          </mxGeometry>
        </mxCell>
        <mxCell id="ogEo_6NqqmNYCkTCZS1q-28" value="" style="endArrow=classic;html=1;rounded=0;fontSize=12;strokeWidth=3;" parent="1" edge="1">
          <mxGeometry width="50" height="50" relative="1" as="geometry">
            <mxPoint x="100" y="910" as="sourcePoint" />
            <mxPoint x="800" y="910" as="targetPoint" />
          </mxGeometry>
        </mxCell>
        <mxCell id="ogEo_6NqqmNYCkTCZS1q-35" value="&lt;div&gt;&lt;font style=&quot;font-size: 14px;&quot;&gt;Notify end-user&lt;/font&gt;&lt;/div&gt;&lt;div&gt;&lt;font style=&quot;font-size: 14px;&quot;&gt;&lt;br&gt;&lt;/font&gt;&lt;/div&gt;" style="edgeLabel;html=1;align=center;verticalAlign=middle;resizable=0;points=[];" parent="ogEo_6NqqmNYCkTCZS1q-28" vertex="1" connectable="0">
          <mxGeometry x="0.0074" y="4" relative="1" as="geometry">
            <mxPoint as="offset" />
          </mxGeometry>
        </mxCell>
        <mxCell id="ogEo_6NqqmNYCkTCZS1q-29" value="" style="endArrow=classic;html=1;rounded=0;fontSize=12;strokeWidth=3;entryX=0.5;entryY=1;entryDx=0;entryDy=0;" parent="1" target="ogEo_6NqqmNYCkTCZS1q-21" edge="1">
          <mxGeometry width="50" height="50" relative="1" as="geometry">
            <mxPoint x="90" y="832.54" as="sourcePoint" />
            <mxPoint x="860" y="430" as="targetPoint" />
          </mxGeometry>
        </mxCell>
        <mxCell id="ogEo_6NqqmNYCkTCZS1q-34" value="&lt;font style=&quot;font-size: 14px;&quot;&gt;Pull Docker Image&lt;br&gt;&lt;/font&gt;" style="edgeLabel;html=1;align=center;verticalAlign=middle;resizable=0;points=[];" parent="ogEo_6NqqmNYCkTCZS1q-29" vertex="1" connectable="0">
          <mxGeometry x="-0.0202" relative="1" as="geometry">
            <mxPoint as="offset" />
          </mxGeometry>
        </mxCell>
        <mxCell id="ogEo_6NqqmNYCkTCZS1q-31" value="" style="endArrow=classic;html=1;rounded=0;fontSize=12;strokeWidth=3;" parent="1" edge="1">
          <mxGeometry width="50" height="50" relative="1" as="geometry">
            <mxPoint x="-5.59" y="391.27" as="sourcePoint" />
            <mxPoint x="-5.59" y="761.27" as="targetPoint" />
          </mxGeometry>
        </mxCell>
        <mxCell id="ogEo_6NqqmNYCkTCZS1q-36" value="&lt;font style=&quot;font-size: 14px;&quot;&gt;CI/CD Build&lt;br&gt;&lt;/font&gt;" style="edgeLabel;html=1;align=center;verticalAlign=middle;resizable=0;points=[];" parent="ogEo_6NqqmNYCkTCZS1q-31" vertex="1" connectable="0">
          <mxGeometry x="-0.1501" y="2" relative="1" as="geometry">
            <mxPoint as="offset" />
          </mxGeometry>
        </mxCell>
        <mxCell id="ogEo_6NqqmNYCkTCZS1q-37" value="&lt;font style=&quot;font-size: 14px;&quot;&gt;Deploy Container&lt;br&gt;&lt;/font&gt;" style="endArrow=classic;html=1;rounded=0;fontSize=12;strokeWidth=3;" parent="1" edge="1">
          <mxGeometry width="50" height="50" relative="1" as="geometry">
            <mxPoint x="890" y="430" as="sourcePoint" />
            <mxPoint x="890" y="600" as="targetPoint" />
          </mxGeometry>
        </mxCell>
      </root>
    </mxGraphModel>
  </diagram>
</mxfile>
